<mxGraphModel dx="0" dy="0" grid="1" gridSize="10" guides="1" tooltips="1" connect="1" arrows="1" fold="1" page="0" pageScale="1" background="none" math="0" shadow="0">
  <root>
    <mxCell id="0" />
    <mxCell id="1" parent="0" />
    <mxCell id="node39" parent="1" vertex="1" value="&lt;p style=&quot;margin:0px;margin-top:4px;text-align:center;&quot;&gt;&lt;b&gt;AuthController&lt;/b&gt;&lt;/p&gt;&lt;hr size=&quot;1&quot;/&gt;&lt;p style=&quot;margin:0 0 0 4px;line-height:1.6;&quot;&gt;- authenticationService: AuthenticationService&lt;/p&gt;&lt;hr size=&quot;1&quot;/&gt;&lt;p style=&quot;margin:0 0 0 4px;line-height:1.6;&quot;&gt;+ createAuthToken(UserJwtRequest): ResponseEntity&amp;lt;?&amp;gt;&lt;/p&gt;" style="verticalAlign=top;align=left;overflow=fill;fontSize=14;fontFamily=Helvetica;html=1;rounded=0;shadow=0;comic=0;labelBackgroundColor=none;strokeWidth=1;">
      <mxGeometry x="7285" y="2178" width="399" height="95" as="geometry" />
    </mxCell>
    <mxCell id="node4" parent="1" vertex="1" value="&lt;p style=&quot;margin:0px;margin-top:4px;text-align:center;&quot;&gt;&lt;b&gt;AuthenticationService&lt;/b&gt;&lt;/p&gt;&lt;hr size=&quot;1&quot;/&gt;&lt;p style=&quot;margin:0 0 0 4px;line-height:1.6;&quot;&gt;- jwtUtils: JwtUtils&lt;br/&gt;- doctorRepository: DoctorRepository&lt;br/&gt;- authenticationManager: AuthenticationManager&lt;/p&gt;&lt;hr size=&quot;1&quot;/&gt;&lt;p style=&quot;margin:0 0 0 4px;line-height:1.6;&quot;&gt;+ authenticate(UserJwtRequest): UserJwtResponse&lt;/p&gt;" style="verticalAlign=top;align=left;overflow=fill;fontSize=14;fontFamily=Helvetica;html=1;rounded=0;shadow=0;comic=0;labelBackgroundColor=none;strokeWidth=1;">
      <mxGeometry x="7304" y="1556" width="361" height="147" as="geometry" />
    </mxCell>
    <mxCell id="node37" parent="1" vertex="1" value="&lt;p style=&quot;margin:0px;margin-top:4px;text-align:center;&quot;&gt;&lt;b&gt;Doctor&lt;/b&gt;&lt;/p&gt;&lt;hr size=&quot;1&quot;/&gt;&lt;p style=&quot;margin:0 0 0 4px;line-height:1.6;&quot;&gt;- doctorCode: Long&lt;br/&gt;- user: User&lt;br/&gt;- middleName: String&lt;br/&gt;- id: Long&lt;br/&gt;- phoneNumber: String&lt;br/&gt;- email: String&lt;br/&gt;- lastName: String&lt;br/&gt;- firstName: String&lt;/p&gt;&lt;hr size=&quot;1&quot;/&gt;&lt;p style=&quot;margin:0 0 0 4px;line-height:1.6;&quot;&gt;+ getDoctorCode(): Long&lt;br/&gt;+ getId(): Long&lt;br/&gt;+ setPhoneNumber(String): void&lt;br/&gt;+ getLastName(): String&lt;br/&gt;+ getEmail(): String&lt;br/&gt;+ setDoctorCode(Long): void&lt;br/&gt;+ setId(Long): void&lt;br/&gt;+ setMiddleName(String): void&lt;br/&gt;+ getUser(): User&lt;br/&gt;+ getMiddleName(): String&lt;br/&gt;+ setLastName(String): void&lt;br/&gt;+ setFirstName(String): void&lt;br/&gt;+ setEmail(String): void&lt;br/&gt;+ getFirstName(): String&lt;br/&gt;+ getPhoneNumber(): String&lt;br/&gt;+ setUser(User): void&lt;/p&gt;" style="verticalAlign=top;align=left;overflow=fill;fontSize=14;fontFamily=Helvetica;html=1;rounded=0;shadow=0;comic=0;labelBackgroundColor=none;strokeWidth=1;">
      <mxGeometry x="6383" y="479" width="235" height="616" as="geometry" />
    </mxCell>
    <mxCell id="node46" parent="1" vertex="1" value="&lt;p style=&quot;margin:0px;margin-top:4px;text-align:center;&quot;&gt;&lt;i&gt;&amp;lt;&amp;lt;interface&amp;gt;&amp;gt;&lt;/i&gt;&lt;br/&gt;&lt;b&gt;DoctorRepository&lt;/b&gt;&lt;/p&gt;&lt;hr size=&quot;1&quot;/&gt;&lt;p style=&quot;margin:0 0 0 4px;line-height:1.6;&quot;&gt;+ findByUserUsername(String, Class&amp;lt;T&amp;gt;): Optional&amp;lt;T&amp;gt;&lt;/p&gt;" style="verticalAlign=top;align=left;overflow=fill;fontSize=14;fontFamily=Helvetica;html=1;rounded=0;shadow=0;comic=0;labelBackgroundColor=none;strokeWidth=1;">
      <mxGeometry x="6648" y="756" width="377" height="79" as="geometry" />
    </mxCell>
    <mxCell id="node36" parent="1" vertex="1" value="&lt;p style=&quot;margin:0px;margin-top:4px;text-align:center;&quot;&gt;&lt;b&gt;Form&lt;/b&gt;&lt;/p&gt;&lt;hr size=&quot;1&quot;/&gt;&lt;p style=&quot;margin:0 0 0 4px;line-height:1.6;&quot;&gt;- scale: Scale&lt;br/&gt;- description: String&lt;br/&gt;- id: Long&lt;br/&gt;- formQuestions: List&amp;lt;FormQuestion&amp;gt;&lt;br/&gt;- name: String&lt;/p&gt;&lt;hr size=&quot;1&quot;/&gt;&lt;p style=&quot;margin:0 0 0 4px;line-height:1.6;&quot;&gt;+ equals(Object): boolean&lt;br/&gt;+ setDescription(String): void&lt;br/&gt;+ getId(): Long&lt;br/&gt;+ setId(Long): void&lt;br/&gt;+ getName(): String&lt;br/&gt;+ getFormQuestions(): List&amp;lt;FormQuestion&amp;gt;&lt;br/&gt;+ setName(String): void&lt;br/&gt;+ hashCode(): int&lt;br/&gt;+ setScale(Scale): void&lt;br/&gt;+ getDescription(): String&lt;br/&gt;+ getScale(): Scale&lt;br/&gt;+ setFormQuestions(List&amp;lt;FormQuestion&amp;gt;): void&lt;br/&gt;+ builder(): FormBuilder&lt;/p&gt;" style="verticalAlign=top;align=left;overflow=fill;fontSize=14;fontFamily=Helvetica;html=1;rounded=0;shadow=0;comic=0;labelBackgroundColor=none;strokeWidth=1;">
      <mxGeometry x="5761" y="551" width="333" height="472" as="geometry" />
    </mxCell>
    <mxCell id="node28" parent="1" vertex="1" value="&lt;p style=&quot;margin:0px;margin-top:4px;text-align:center;&quot;&gt;&lt;b&gt;FormController&lt;/b&gt;&lt;/p&gt;&lt;hr size=&quot;1&quot;/&gt;&lt;p style=&quot;margin:0 0 0 4px;line-height:1.6;&quot;&gt;- formService: FormServiceImpl&lt;/p&gt;&lt;hr size=&quot;1&quot;/&gt;&lt;p style=&quot;margin:0 0 0 4px;line-height:1.6;&quot;&gt;+ getById(Long): ResponseEntity&amp;lt;?&amp;gt;&lt;br/&gt;+ createForm(FormDto): ResponseEntity&amp;lt;?&amp;gt;&lt;br/&gt;+ getAll(): ResponseEntity&amp;lt;?&amp;gt;&lt;br/&gt;+ getByName(String): ResponseEntity&amp;lt;?&amp;gt;&lt;br/&gt;+ deleteById(Long): ResponseEntity&amp;lt;?&amp;gt;&lt;/p&gt;" style="verticalAlign=top;align=left;overflow=fill;fontSize=14;fontFamily=Helvetica;html=1;rounded=0;shadow=0;comic=0;labelBackgroundColor=none;strokeWidth=1;">
      <mxGeometry x="6511" y="1184" width="311" height="184" as="geometry" />
    </mxCell>
    <mxCell id="node1" parent="1" vertex="1" value="&lt;p style=&quot;margin:0px;margin-top:4px;text-align:center;&quot;&gt;&lt;b&gt;FormDto&lt;/b&gt;&lt;/p&gt;&lt;hr size=&quot;1&quot;/&gt;&lt;p style=&quot;margin:0 0 0 4px;line-height:1.6;&quot;&gt;- name: String&lt;br/&gt;- id: Long&lt;br/&gt;- description: String&lt;br/&gt;- questions: List&amp;lt;QuestionDto&amp;gt;&lt;br/&gt;- scaleId: ScaleDto&lt;/p&gt;&lt;hr size=&quot;1&quot;/&gt;&lt;p style=&quot;margin:0 0 0 4px;line-height:1.6;&quot;&gt;+ setId(Long): void&lt;br/&gt;+ getName(): String&lt;br/&gt;+ builder(): FormDtoBuilder&lt;br/&gt;+ setScaleId(ScaleDto): void&lt;br/&gt;+ setName(String): void&lt;br/&gt;+ setQuestions(List&amp;lt;QuestionDto&amp;gt;): void&lt;br/&gt;+ setDescription(String): void&lt;br/&gt;+ getId(): Long&lt;br/&gt;+ getDescription(): String&lt;br/&gt;+ getScaleId(): ScaleDto&lt;br/&gt;+ getQuestions(): List&amp;lt;QuestionDto&amp;gt;&lt;/p&gt;" style="verticalAlign=top;align=left;overflow=fill;fontSize=14;fontFamily=Helvetica;html=1;rounded=0;shadow=0;comic=0;labelBackgroundColor=none;strokeWidth=1;">
      <mxGeometry x="-11" y="1412" width="291" height="424" as="geometry" />
    </mxCell>
    <mxCell id="node0" parent="1" vertex="1" value="&lt;p style=&quot;margin:0px;margin-top:4px;text-align:center;&quot;&gt;&lt;i&gt;&amp;lt;&amp;lt;interface&amp;gt;&amp;gt;&lt;/i&gt;&lt;br/&gt;&lt;b&gt;FormMapper&lt;/b&gt;&lt;/p&gt;&lt;hr size=&quot;1&quot;/&gt;&lt;p style=&quot;margin:0 0 0 4px;line-height:1.6;&quot;&gt;+ toEntity(FormDto): Form&lt;br/&gt;+ toDto(Form, List&amp;lt;Question&amp;gt;): FormDto&lt;/p&gt;" style="verticalAlign=top;align=left;overflow=fill;fontSize=14;fontFamily=Helvetica;html=1;rounded=0;shadow=0;comic=0;labelBackgroundColor=none;strokeWidth=1;">
      <mxGeometry x="2256" y="2179" width="288" height="109" as="geometry" />
    </mxCell>
    <mxCell id="node27" parent="1" vertex="1" value="&lt;p style=&quot;margin:0px;margin-top:4px;text-align:center;&quot;&gt;&lt;b&gt;FormMapperImpl&lt;/b&gt;&lt;/p&gt;&lt;hr size=&quot;1&quot;/&gt;&lt;p style=&quot;margin:0 0 0 4px;line-height:1.6;&quot;&gt;- questionMapper: QuestionMapper&lt;br/&gt;- scaleMapper: ScaleMapper&lt;/p&gt;&lt;hr size=&quot;1&quot;/&gt;&lt;p style=&quot;margin:0 0 0 4px;line-height:1.6;&quot;&gt;+ toEntity(FormDto): Form&lt;br/&gt;# questionDtoListToFormQuestionList(List&amp;lt;QuestionDto&amp;gt;): List&amp;lt;FormQuestion&amp;gt;&lt;br/&gt;# questionDtoToFormQuestion(QuestionDto): FormQuestion&lt;br/&gt;+ toDto(Form, List&amp;lt;Question&amp;gt;): FormDto&lt;/p&gt;" style="verticalAlign=top;align=left;overflow=fill;fontSize=14;fontFamily=Helvetica;html=1;rounded=0;shadow=0;comic=0;labelBackgroundColor=none;strokeWidth=1;">
      <mxGeometry x="2080" y="2608" width="536" height="184" as="geometry" />
    </mxCell>
    <mxCell id="node25" parent="1" vertex="1" value="&lt;p style=&quot;margin:0px;margin-top:4px;text-align:center;&quot;&gt;&lt;b&gt;FormQuestion&lt;/b&gt;&lt;/p&gt;&lt;hr size=&quot;1&quot;/&gt;&lt;p style=&quot;margin:0 0 0 4px;line-height:1.6;&quot;&gt;- question: Question&lt;br/&gt;- createdAt: Instant&lt;br/&gt;- id: Long&lt;br/&gt;- form: Form&lt;/p&gt;&lt;hr size=&quot;1&quot;/&gt;&lt;p style=&quot;margin:0 0 0 4px;line-height:1.6;&quot;&gt;+ setForm(Form): void&lt;br/&gt;+ setQuestion(Question): void&lt;br/&gt;+ getForm(): Form&lt;br/&gt;+ setCreatedAt(Instant): void&lt;br/&gt;+ builder(): FormQuestionBuilder&lt;br/&gt;+ getCreatedAt(): Instant&lt;br/&gt;+ getId(): Long&lt;br/&gt;+ getQuestion(): Question&lt;br/&gt;+ setId(Long): void&lt;/p&gt;" style="verticalAlign=top;align=left;overflow=fill;fontSize=14;fontFamily=Helvetica;html=1;rounded=0;shadow=0;comic=0;labelBackgroundColor=none;strokeWidth=1;">
      <mxGeometry x="5464" y="611" width="237" height="352" as="geometry" />
    </mxCell>
    <mxCell id="node23" parent="1" vertex="1" value="&lt;p style=&quot;margin:0px;margin-top:4px;text-align:center;&quot;&gt;&lt;b&gt;FormQuestionDto&lt;/b&gt;&lt;/p&gt;&lt;hr size=&quot;1&quot;/&gt;&lt;p style=&quot;margin:0 0 0 4px;line-height:1.6;&quot;&gt;- formDto: FormDto&lt;br/&gt;- id: Long&lt;br/&gt;- createdAt: Instant&lt;br/&gt;- questionDto: QuestionDto&lt;/p&gt;&lt;hr size=&quot;1&quot;/&gt;&lt;p style=&quot;margin:0 0 0 4px;line-height:1.6;&quot;&gt;+ getQuestionDto(): QuestionDto&lt;br/&gt;+ getCreatedAt(): Instant&lt;br/&gt;+ setCreatedAt(Instant): void&lt;br/&gt;+ setFormDto(FormDto): void&lt;br/&gt;+ builder(): FormQuestionDtoBuilder&lt;br/&gt;+ getId(): Long&lt;br/&gt;+ getFormDto(): FormDto&lt;br/&gt;+ setId(Long): void&lt;br/&gt;+ setQuestionDto(QuestionDto): void&lt;/p&gt;" style="verticalAlign=top;align=left;overflow=fill;fontSize=14;fontFamily=Helvetica;html=1;rounded=0;shadow=0;comic=0;labelBackgroundColor=none;strokeWidth=1;">
      <mxGeometry x="-173" y="2046" width="266" height="352" as="geometry" />
    </mxCell>
    <mxCell id="node3" parent="1" vertex="1" value="&lt;p style=&quot;margin:0px;margin-top:4px;text-align:center;&quot;&gt;&lt;i&gt;&amp;lt;&amp;lt;interface&amp;gt;&amp;gt;&lt;/i&gt;&lt;br/&gt;&lt;b&gt;FormQuestionMapper&lt;/b&gt;&lt;/p&gt;&lt;hr size=&quot;1&quot;/&gt;&lt;p style=&quot;margin:0 0 0 4px;line-height:1.6;&quot;&gt;+ toDto(FormQuestion): FormQuestionDto&lt;br/&gt;+ toDtoList(List&amp;lt;FormQuestion&amp;gt;): List&amp;lt;FormQuestionDto&amp;gt;&lt;br/&gt;+ toEntity(FormQuestionDto): FormQuestion&lt;br/&gt;+ toEntityList(List&amp;lt;FormQuestionDto&amp;gt;): List&amp;lt;FormQuestion&amp;gt;&lt;/p&gt;" style="verticalAlign=top;align=left;overflow=fill;fontSize=14;fontFamily=Helvetica;html=1;rounded=0;shadow=0;comic=0;labelBackgroundColor=none;strokeWidth=1;">
      <mxGeometry x="1637" y="2633" width="413" height="169" as="geometry" />
    </mxCell>
    <mxCell id="node33" parent="1" vertex="1" value="&lt;p style=&quot;margin:0px;margin-top:4px;text-align:center;&quot;&gt;&lt;b&gt;FormQuestionMapperImpl&lt;/b&gt;&lt;/p&gt;&lt;hr size=&quot;1&quot;/&gt;&lt;p style=&quot;margin:0 0 0 4px;line-height:1.6;&quot;&gt;- formMapper: FormMapper&lt;br/&gt;- questionMapper: QuestionMapper&lt;/p&gt;&lt;hr size=&quot;1&quot;/&gt;&lt;p style=&quot;margin:0 0 0 4px;line-height:1.6;&quot;&gt;+ toDtoList(List&amp;lt;FormQuestion&amp;gt;): List&amp;lt;FormQuestionDto&amp;gt;&lt;br/&gt;+ toDto(FormQuestion): FormQuestionDto&lt;br/&gt;+ toEntity(FormQuestionDto): FormQuestion&lt;br/&gt;+ toEntityList(List&amp;lt;FormQuestionDto&amp;gt;): List&amp;lt;FormQuestion&amp;gt;&lt;br/&gt;# formToFormDto(Form): FormDto&lt;/p&gt;" style="verticalAlign=top;align=left;overflow=fill;fontSize=14;fontFamily=Helvetica;html=1;rounded=0;shadow=0;comic=0;labelBackgroundColor=none;strokeWidth=1;">
      <mxGeometry x="-267" y="2972" width="413" height="208" as="geometry" />
    </mxCell>
    <mxCell id="node16" parent="1" vertex="1" value="&lt;p style=&quot;margin:0px;margin-top:4px;text-align:center;&quot;&gt;&lt;i&gt;&amp;lt;&amp;lt;interface&amp;gt;&amp;gt;&lt;/i&gt;&lt;br/&gt;&lt;b&gt;FormQuestionRepository&lt;/b&gt;&lt;/p&gt;&lt;hr size=&quot;1&quot;/&gt;&lt;p style=&quot;margin:0 0 0 4px;line-height:1.6;&quot;&gt;+ findByFormId(Long): List&amp;lt;FormQuestion&amp;gt;&lt;br/&gt;+ deleteByQuestionId(Long): void&lt;br/&gt;+ deleteByFormId(Long): void&lt;br/&gt;+ deleteByQuestionFormId(Long, Long): void&lt;/p&gt;" style="verticalAlign=top;align=left;overflow=fill;fontSize=14;fontFamily=Helvetica;html=1;rounded=0;shadow=0;comic=0;labelBackgroundColor=none;strokeWidth=1;">
      <mxGeometry x="3790" y="2155" width="313" height="169" as="geometry" />
    </mxCell>
    <mxCell id="node30" parent="1" vertex="1" value="&lt;p style=&quot;margin:0px;margin-top:4px;text-align:center;&quot;&gt;&lt;i&gt;&amp;lt;&amp;lt;interface&amp;gt;&amp;gt;&lt;/i&gt;&lt;br/&gt;&lt;b&gt;FormRepository&lt;/b&gt;&lt;/p&gt;&lt;hr size=&quot;1&quot;/&gt;&lt;p style=&quot;margin:0 0 0 4px;line-height:1.6;&quot;&gt;+ findById(Long): Optional&amp;lt;Form&amp;gt;&lt;br/&gt;+ findAll(): List&amp;lt;Form&amp;gt;&lt;br/&gt;+ findAllByName(String): List&amp;lt;Form&amp;gt;&lt;/p&gt;" style="verticalAlign=top;align=left;overflow=fill;fontSize=14;fontFamily=Helvetica;html=1;rounded=0;shadow=0;comic=0;labelBackgroundColor=none;strokeWidth=1;">
      <mxGeometry x="4216" y="2167" width="261" height="139" as="geometry" />
    </mxCell>
    <mxCell id="node49" parent="1" vertex="1" value="&lt;p style=&quot;margin:0px;margin-top:4px;text-align:center;&quot;&gt;&lt;b&gt;FormService&lt;/b&gt;&lt;/p&gt;&lt;hr size=&quot;1&quot;/&gt;&lt;p style=&quot;margin:0 0 0 4px;line-height:1.6;&quot;&gt;- formQuestionRepository: FormQuestionRepository&lt;br/&gt;- questionService: QuestionService&lt;br/&gt;- formRepository: FormRepository&lt;br/&gt;- variantService: VariantService&lt;br/&gt;- scaleMapper: ScaleMapper&lt;br/&gt;- formMapper: FormMapper&lt;/p&gt;&lt;hr size=&quot;1&quot;/&gt;&lt;p style=&quot;margin:0 0 0 4px;line-height:1.6;&quot;&gt;- createSaveFormDto(FormDto, Form): FormDto&lt;br/&gt;- processQuestionsAndVariants(List&amp;lt;QuestionDto&amp;gt;): List&amp;lt;Question&amp;gt;&lt;br/&gt;+ getFormDtoById(Long): FormDto&lt;br/&gt;- deleteOldQuestions(List&amp;lt;Question&amp;gt;, List&amp;lt;Question&amp;gt;, Long): void&lt;br/&gt;+ createForm(FormDto): FormDto&lt;br/&gt;+ getListFormDtoByName(String): List&amp;lt;FormDto&amp;gt;&lt;br/&gt;- createFormQuestion(Form, Question): FormQuestion&lt;br/&gt;+ deleteForm(Long): void&lt;br/&gt;+ getFormById(Long): Form&lt;br/&gt;+ getAllFormDto(): List&amp;lt;FormDto&amp;gt;&lt;/p&gt;" style="verticalAlign=top;align=left;overflow=fill;fontSize=14;fontFamily=Helvetica;html=1;rounded=0;shadow=0;comic=0;labelBackgroundColor=none;strokeWidth=1;">
      <mxGeometry x="2646" y="2488" width="468" height="424" as="geometry" />
    </mxCell>
    <mxCell id="node38" parent="1" vertex="1" value="&lt;p style=&quot;margin:0px;margin-top:4px;text-align:center;&quot;&gt;&lt;b&gt;FormServiceImpl&lt;/b&gt;&lt;/p&gt;&lt;hr size=&quot;1&quot;/&gt;&lt;p style=&quot;margin:0 0 0 4px;line-height:1.6;&quot;&gt;- scaleMapper: ScaleMapper&lt;br/&gt;- formRepository: FormRepository&lt;br/&gt;- variantService: VariantServiceImpl&lt;br/&gt;- formQuestionRepository: FormQuestionRepository&lt;br/&gt;- questionService: QuestionServiceImpl&lt;br/&gt;- formMapper: FormMapper&lt;/p&gt;&lt;hr size=&quot;1&quot;/&gt;&lt;p style=&quot;margin:0 0 0 4px;line-height:1.6;&quot;&gt;- createSaveFormDto(FormDto, Form): FormDto&lt;br/&gt;+ getListFormDtoByName(String): List&amp;lt;FormDto&amp;gt;&lt;br/&gt;- createFormQuestion(Form, Question): FormQuestion&lt;br/&gt;- deleteOldQuestions(List&amp;lt;Question&amp;gt;, List&amp;lt;Question&amp;gt;, Long): void&lt;br/&gt;+ getAllFormDto(): List&amp;lt;FormDto&amp;gt;&lt;br/&gt;+ getFormDtoById(Long): FormDto&lt;br/&gt;+ deleteForm(Long): void&lt;br/&gt;- processQuestionsAndVariants(List&amp;lt;QuestionDto&amp;gt;): List&amp;lt;Question&amp;gt;&lt;br/&gt;+ getFormById(Long): Form&lt;br/&gt;+ createForm(FormDto): FormDto&lt;/p&gt;" style="verticalAlign=top;align=left;overflow=fill;fontSize=14;fontFamily=Helvetica;html=1;rounded=0;shadow=0;comic=0;labelBackgroundColor=none;strokeWidth=1;">
      <mxGeometry x="3850" y="2488" width="468" height="424" as="geometry" />
    </mxCell>
    <mxCell id="node35" parent="1" vertex="1" value="&lt;p style=&quot;margin:0px;margin-top:4px;text-align:center;&quot;&gt;&lt;b&gt;Interpretation&lt;/b&gt;&lt;/p&gt;&lt;hr size=&quot;1&quot;/&gt;&lt;p style=&quot;margin:0 0 0 4px;line-height:1.6;&quot;&gt;- id: Long&lt;br/&gt;- maxValue: BigDecimal&lt;br/&gt;- description: String&lt;br/&gt;- scale: Scale&lt;br/&gt;- minValue: BigDecimal&lt;/p&gt;&lt;hr size=&quot;1&quot;/&gt;&lt;p style=&quot;margin:0 0 0 4px;line-height:1.6;&quot;&gt;+ setId(Long): void&lt;br/&gt;+ getMinValue(): BigDecimal&lt;br/&gt;+ getId(): Long&lt;br/&gt;+ setMaxValue(BigDecimal): void&lt;br/&gt;+ setScale(Scale): void&lt;br/&gt;+ getScale(): Scale&lt;br/&gt;+ setMinValue(BigDecimal): void&lt;br/&gt;+ getMaxValue(): BigDecimal&lt;br/&gt;+ getDescription(): String&lt;br/&gt;+ setDescription(String): void&lt;/p&gt;" style="verticalAlign=top;align=left;overflow=fill;fontSize=14;fontFamily=Helvetica;html=1;rounded=0;shadow=0;comic=0;labelBackgroundColor=none;strokeWidth=1;">
      <mxGeometry x="5951" y="2022" width="236" height="400" as="geometry" />
    </mxCell>
    <mxCell id="node7" parent="1" vertex="1" value="&lt;p style=&quot;margin:0px;margin-top:4px;text-align:center;&quot;&gt;&lt;b&gt;InterpretationController&lt;/b&gt;&lt;/p&gt;&lt;hr size=&quot;1&quot;/&gt;&lt;p style=&quot;margin:0 0 0 4px;line-height:1.6;&quot;&gt;- interpretationService: InterpretationService&lt;/p&gt;&lt;hr size=&quot;1&quot;/&gt;&lt;p style=&quot;margin:0 0 0 4px;line-height:1.6;&quot;&gt;+ getById(Long): ResponseEntity&amp;lt;?&amp;gt;&lt;br/&gt;+ getAll(): ResponseEntity&amp;lt;?&amp;gt;&lt;/p&gt;" style="verticalAlign=top;align=left;overflow=fill;fontSize=14;fontFamily=Helvetica;html=1;rounded=0;shadow=0;comic=0;labelBackgroundColor=none;strokeWidth=1;">
      <mxGeometry x="6289" y="3332" width="316" height="121" as="geometry" />
    </mxCell>
    <mxCell id="node44" parent="1" vertex="1" value="&lt;p style=&quot;margin:0px;margin-top:4px;text-align:center;&quot;&gt;&lt;i&gt;&amp;lt;&amp;lt;interface&amp;gt;&amp;gt;&lt;/i&gt;&lt;br/&gt;&lt;b&gt;InterpretationRepository&lt;/b&gt;&lt;/p&gt;&lt;hr size=&quot;1&quot;/&gt;&lt;p style=&quot;margin:0 0 0 4px;line-height:1.6;&quot;&gt;+ findById(Long): Optional&amp;lt;Interpretation&amp;gt;&lt;br/&gt;+ findAll(): List&amp;lt;Interpretation&amp;gt;&lt;/p&gt;" style="verticalAlign=top;align=left;overflow=fill;fontSize=14;fontFamily=Helvetica;html=1;rounded=0;shadow=0;comic=0;labelBackgroundColor=none;strokeWidth=1;">
      <mxGeometry x="5919" y="2657" width="299" height="109" as="geometry" />
    </mxCell>
    <mxCell id="node32" parent="1" vertex="1" value="&lt;p style=&quot;margin:0px;margin-top:4px;text-align:center;&quot;&gt;&lt;b&gt;InterpretationService&lt;/b&gt;&lt;/p&gt;&lt;hr size=&quot;1&quot;/&gt;&lt;p style=&quot;margin:0 0 0 4px;line-height:1.6;&quot;&gt;- interpretationRepository: InterpretationRepository&lt;/p&gt;&lt;hr size=&quot;1&quot;/&gt;&lt;p style=&quot;margin:0 0 0 4px;line-height:1.6;&quot;&gt;+ getById(Long): Interpretation&lt;br/&gt;+ getAll(): List&amp;lt;Interpretation&amp;gt;&lt;/p&gt;" style="verticalAlign=top;align=left;overflow=fill;fontSize=14;fontFamily=Helvetica;html=1;rounded=0;shadow=0;comic=0;labelBackgroundColor=none;strokeWidth=1;">
      <mxGeometry x="6268" y="2644" width="358" height="121" as="geometry" />
    </mxCell>
    <mxCell id="node10" parent="1" vertex="1" value="&lt;p style=&quot;margin:0px;margin-top:4px;text-align:center;&quot;&gt;&lt;b&gt;JwtRequestFilter&lt;/b&gt;&lt;/p&gt;&lt;hr size=&quot;1&quot;/&gt;&lt;p style=&quot;margin:0 0 0 4px;line-height:1.6;&quot;&gt;- userService: UserService&lt;br/&gt;- log: Logger&lt;br/&gt;- jwtUtils: JwtUtils&lt;br/&gt;- developMode: boolean&lt;/p&gt;&lt;hr size=&quot;1&quot;/&gt;&lt;p style=&quot;margin:0 0 0 4px;line-height:1.6;&quot;&gt;- setAuthentication(String): void&lt;br/&gt;# doFilterInternal(HttpServletRequest, HttpServletResponse, FilterChain): void&lt;/p&gt;" style="verticalAlign=top;align=left;overflow=fill;fontSize=14;fontFamily=Helvetica;html=1;rounded=0;shadow=0;comic=0;labelBackgroundColor=none;strokeWidth=1;">
      <mxGeometry x="4588" y="1532" width="449" height="184" as="geometry" />
    </mxCell>
    <mxCell id="node11" parent="1" vertex="1" value="&lt;p style=&quot;margin:0px;margin-top:4px;text-align:center;&quot;&gt;&lt;b&gt;JwtUtils&lt;/b&gt;&lt;/p&gt;&lt;hr size=&quot;1&quot;/&gt;&lt;p style=&quot;margin:0 0 0 4px;line-height:1.6;&quot;&gt;- lifeTimeOfDays: long&lt;br/&gt;- secret: String&lt;/p&gt;&lt;hr size=&quot;1&quot;/&gt;&lt;p style=&quot;margin:0 0 0 4px;line-height:1.6;&quot;&gt;+ extractExpiration(String): Date&lt;br/&gt;- extractAllClaims(String): Claims&lt;br/&gt;+ extractUsername(String): String&lt;br/&gt;- getSignKey(): Key&lt;br/&gt;+ generateToken(UserDetails, DoctorInfo): String&lt;br/&gt;+ extractRoles(String): List&amp;lt;String&amp;gt;&lt;br/&gt;- isTokenExpired(String): Boolean&lt;br/&gt;+ extractClaim(String, Function&amp;lt;Claims, T&amp;gt;): T&lt;br/&gt;+ validateToken(String, UserDetails): Boolean&lt;/p&gt;" style="verticalAlign=top;align=left;overflow=fill;fontSize=14;fontFamily=Helvetica;html=1;rounded=0;shadow=0;comic=0;labelBackgroundColor=none;strokeWidth=1;">
      <mxGeometry x="4700" y="635" width="341" height="304" as="geometry" />
    </mxCell>
    <mxCell id="node17" parent="1" vertex="1" value="&lt;p style=&quot;margin:0px;margin-top:4px;text-align:center;&quot;&gt;&lt;b&gt;Question&lt;/b&gt;&lt;/p&gt;&lt;hr size=&quot;1&quot;/&gt;&lt;p style=&quot;margin:0 0 0 4px;line-height:1.6;&quot;&gt;- variants: Set&amp;lt;Variant&amp;gt;&lt;br/&gt;- required: Boolean&lt;br/&gt;- content: String&lt;br/&gt;- type: String&lt;br/&gt;- id: Long&lt;br/&gt;- formQuestions: List&amp;lt;FormQuestion&amp;gt;&lt;/p&gt;&lt;hr size=&quot;1&quot;/&gt;&lt;p style=&quot;margin:0 0 0 4px;line-height:1.6;&quot;&gt;+ getContent(): String&lt;br/&gt;+ setId(Long): void&lt;br/&gt;+ getVariants(): Set&amp;lt;Variant&amp;gt;&lt;br/&gt;+ getId(): Long&lt;br/&gt;+ setContent(String): void&lt;br/&gt;+ equals(Object): boolean&lt;br/&gt;+ getRequired(): Boolean&lt;br/&gt;+ hashCode(): int&lt;br/&gt;+ builder(): QuestionBuilder&lt;br/&gt;+ setType(String): void&lt;br/&gt;+ setRequired(Boolean): void&lt;br/&gt;+ getType(): String&lt;br/&gt;+ getFormQuestions(): List&amp;lt;FormQuestion&amp;gt;&lt;br/&gt;+ setFormQuestions(List&amp;lt;FormQuestion&amp;gt;): void&lt;br/&gt;+ setVariants(Set&amp;lt;Variant&amp;gt;): void&lt;/p&gt;" style="verticalAlign=top;align=left;overflow=fill;fontSize=14;fontFamily=Helvetica;html=1;rounded=0;shadow=0;comic=0;labelBackgroundColor=none;strokeWidth=1;">
      <mxGeometry x="5071" y="515" width="333" height="544" as="geometry" />
    </mxCell>
    <mxCell id="node45" parent="1" vertex="1" value="&lt;p style=&quot;margin:0px;margin-top:4px;text-align:center;&quot;&gt;&lt;b&gt;QuestionController&lt;/b&gt;&lt;/p&gt;&lt;hr size=&quot;1&quot;/&gt;&lt;p style=&quot;margin:0 0 0 4px;line-height:1.6;&quot;&gt;- questionService: QuestionServiceImpl&lt;/p&gt;&lt;hr size=&quot;1&quot;/&gt;&lt;p style=&quot;margin:0 0 0 4px;line-height:1.6;&quot;&gt;+ getById(Long): ResponseEntity&amp;lt;?&amp;gt;&lt;br/&gt;+ getAll(): ResponseEntity&amp;lt;?&amp;gt;&lt;/p&gt;" style="verticalAlign=top;align=left;overflow=fill;fontSize=14;fontFamily=Helvetica;html=1;rounded=0;shadow=0;comic=0;labelBackgroundColor=none;strokeWidth=1;">
      <mxGeometry x="6462" y="3200" width="281" height="121" as="geometry" />
    </mxCell>
    <mxCell id="node20" parent="1" vertex="1" value="&lt;p style=&quot;margin:0px;margin-top:4px;text-align:center;&quot;&gt;&lt;b&gt;QuestionDto&lt;/b&gt;&lt;/p&gt;&lt;hr size=&quot;1&quot;/&gt;&lt;p style=&quot;margin:0 0 0 4px;line-height:1.6;&quot;&gt;- variants: Set&amp;lt;VariantDto&amp;gt;?&lt;br/&gt;- id: Long?&lt;br/&gt;- content: String?&lt;br/&gt;- required: Boolean&lt;br/&gt;- type: QuestionTypeEnum?&lt;/p&gt;&lt;hr size=&quot;1&quot;/&gt;&lt;p style=&quot;margin:0 0 0 4px;line-height:1.6;&quot;&gt;+ getId(): Long?&lt;br/&gt;+ getType(): QuestionTypeEnum?&lt;br/&gt;+ getVariants(): Set&amp;lt;VariantDto&amp;gt;?&lt;br/&gt;+ getRequired(): Boolean&lt;br/&gt;+ setRequired(Boolean): void&lt;br/&gt;+ setId(Long?): void&lt;br/&gt;+ setContent(String?): void&lt;br/&gt;+ setType(QuestionTypeEnum?): void&lt;br/&gt;+ setVariants(Set&amp;lt;VariantDto&amp;gt;?): void&lt;br/&gt;+ builder(): QuestionDtoBuilder&lt;br/&gt;+ getContent(): String?&lt;/p&gt;" style="verticalAlign=top;align=left;overflow=fill;fontSize=14;fontFamily=Helvetica;html=1;rounded=0;shadow=0;comic=0;labelBackgroundColor=none;strokeWidth=1;">
      <mxGeometry x="-256" y="575" width="271" height="424" as="geometry" />
    </mxCell>
    <mxCell id="node6" parent="1" vertex="1" value="&lt;p style=&quot;margin:0px;margin-top:4px;text-align:center;&quot;&gt;&lt;i&gt;&amp;lt;&amp;lt;interface&amp;gt;&amp;gt;&lt;/i&gt;&lt;br/&gt;&lt;b&gt;QuestionMapper&lt;/b&gt;&lt;/p&gt;&lt;hr size=&quot;1&quot;/&gt;&lt;p style=&quot;margin:0 0 0 4px;line-height:1.6;&quot;&gt;+ toDtoList(List&amp;lt;Question&amp;gt;): List&amp;lt;QuestionDto&amp;gt;&lt;br/&gt;+ toEntityList(List&amp;lt;QuestionDto&amp;gt;): List&amp;lt;Question&amp;gt;&lt;br/&gt;+ toDto(Question): QuestionDto&lt;br/&gt;+ toEntity(QuestionDto): Question&lt;/p&gt;" style="verticalAlign=top;align=left;overflow=fill;fontSize=14;fontFamily=Helvetica;html=1;rounded=0;shadow=0;comic=0;labelBackgroundColor=none;strokeWidth=1;">
      <mxGeometry x="464" y="720" width="349" height="169" as="geometry" />
    </mxCell>
    <mxCell id="node34" parent="1" vertex="1" value="&lt;p style=&quot;margin:0px;margin-top:4px;text-align:center;&quot;&gt;&lt;b&gt;QuestionMapperImpl&lt;/b&gt;&lt;/p&gt;&lt;hr size=&quot;1&quot;/&gt;&lt;p style=&quot;margin:0 0 0 4px;line-height:1.6;&quot;&gt;- variantMapper: VariantMapper&lt;/p&gt;&lt;hr size=&quot;1&quot;/&gt;&lt;p style=&quot;margin:0 0 0 4px;line-height:1.6;&quot;&gt;+ toEntity(QuestionDto): Question&lt;br/&gt;+ toEntityList(List&amp;lt;QuestionDto&amp;gt;): List&amp;lt;Question&amp;gt;&lt;br/&gt;+ toDto(Question): QuestionDto&lt;br/&gt;+ toDtoList(List&amp;lt;Question&amp;gt;): List&amp;lt;QuestionDto&amp;gt;&lt;/p&gt;" style="verticalAlign=top;align=left;overflow=fill;fontSize=14;fontFamily=Helvetica;html=1;rounded=0;shadow=0;comic=0;labelBackgroundColor=none;strokeWidth=1;">
      <mxGeometry x="65" y="707" width="349" height="160" as="geometry" />
    </mxCell>
    <mxCell id="node8" parent="1" vertex="1" value="&lt;p style=&quot;margin:0px;margin-top:4px;text-align:center;&quot;&gt;&lt;i&gt;&amp;lt;&amp;lt;interface&amp;gt;&amp;gt;&lt;/i&gt;&lt;br/&gt;&lt;b&gt;QuestionRepository&lt;/b&gt;&lt;/p&gt;&lt;hr size=&quot;1&quot;/&gt;&lt;p style=&quot;margin:0 0 0 4px;line-height:1.6;&quot;&gt;+ findById(Long): Optional&amp;lt;Question&amp;gt;&lt;br/&gt;+ findAll(): List&amp;lt;Question&amp;gt;&lt;/p&gt;" style="verticalAlign=top;align=left;overflow=fill;fontSize=14;fontFamily=Helvetica;html=1;rounded=0;shadow=0;comic=0;labelBackgroundColor=none;strokeWidth=1;">
      <mxGeometry x="1962" y="744" width="270" height="109" as="geometry" />
    </mxCell>
    <mxCell id="node31" parent="1" vertex="1" value="&lt;p style=&quot;margin:0px;margin-top:4px;text-align:center;&quot;&gt;&lt;b&gt;QuestionService&lt;/b&gt;&lt;/p&gt;&lt;hr size=&quot;1&quot;/&gt;&lt;p style=&quot;margin:0 0 0 4px;line-height:1.6;&quot;&gt;- questionRepository: QuestionRepository&lt;br/&gt;- questionMapper: QuestionMapper&lt;/p&gt;&lt;hr size=&quot;1&quot;/&gt;&lt;p style=&quot;margin:0 0 0 4px;line-height:1.6;&quot;&gt;+ toEntity(QuestionDto): Question&lt;br/&gt;+ save(Question): Question&lt;br/&gt;+ deleteById(Long): void&lt;br/&gt;+ toDto(Question): QuestionDto&lt;br/&gt;+ findById(Long): Question&lt;br/&gt;+ toEntityList(List&amp;lt;QuestionDto&amp;gt;): List&amp;lt;Question&amp;gt;&lt;br/&gt;+ getQuestions(): List&amp;lt;QuestionDto&amp;gt;&lt;br/&gt;+ getDtoById(Long): QuestionDto&lt;br/&gt;+ delete(Question): void&lt;/p&gt;" style="verticalAlign=top;align=left;overflow=fill;fontSize=14;fontFamily=Helvetica;html=1;rounded=0;shadow=0;comic=0;labelBackgroundColor=none;strokeWidth=1;">
      <mxGeometry x="863" y="635" width="349" height="304" as="geometry" />
    </mxCell>
    <mxCell id="node13" parent="1" vertex="1" value="&lt;p style=&quot;margin:0px;margin-top:4px;text-align:center;&quot;&gt;&lt;b&gt;QuestionServiceImpl&lt;/b&gt;&lt;/p&gt;&lt;hr size=&quot;1&quot;/&gt;&lt;p style=&quot;margin:0 0 0 4px;line-height:1.6;&quot;&gt;- questionRepository: QuestionRepository&lt;br/&gt;- questionMapper: QuestionMapper&lt;/p&gt;&lt;hr size=&quot;1&quot;/&gt;&lt;p style=&quot;margin:0 0 0 4px;line-height:1.6;&quot;&gt;+ getQuestions(): List&amp;lt;QuestionDto&amp;gt;&lt;br/&gt;+ delete(Question): void&lt;br/&gt;+ deleteById(Long): void&lt;br/&gt;+ save(Question): Question&lt;br/&gt;+ toEntityList(List&amp;lt;QuestionDto&amp;gt;): List&amp;lt;Question&amp;gt;&lt;br/&gt;+ findById(Long): Question&lt;br/&gt;+ toEntity(QuestionDto): Question&lt;br/&gt;+ toDto(Question): QuestionDto&lt;br/&gt;+ getDtoById(Long): QuestionDto&lt;/p&gt;" style="verticalAlign=top;align=left;overflow=fill;fontSize=14;fontFamily=Helvetica;html=1;rounded=0;shadow=0;comic=0;labelBackgroundColor=none;strokeWidth=1;">
      <mxGeometry x="2282" y="635" width="349" height="304" as="geometry" />
    </mxCell>
    <mxCell id="node18" parent="1" vertex="1" value="&lt;p style=&quot;margin:0px;margin-top:4px;text-align:center;&quot;&gt;&lt;i&gt;&amp;lt;&amp;lt;enumeration&amp;gt;&amp;gt;&lt;/i&gt;&lt;br/&gt;&lt;b&gt;QuestionTypeEnum&lt;/b&gt;&lt;/p&gt;&lt;hr size=&quot;1&quot;/&gt;&lt;p style=&quot;margin:0 0 0 4px;line-height:1.6;&quot;&gt;- title: String&lt;br/&gt;+ MULTIPLE_CHOICE: &lt;br/&gt;+ SINGLE_CHOICE: &lt;br/&gt;+ SCALE: &lt;/p&gt;&lt;hr size=&quot;1&quot;/&gt;&lt;p style=&quot;margin:0 0 0 4px;line-height:1.6;&quot;&gt;+ values(): QuestionTypeEnum[]&lt;br/&gt;+ getTitle(): String&lt;br/&gt;+ valueOf(String): QuestionTypeEnum&lt;br/&gt;+ toString(): String&lt;/p&gt;" style="verticalAlign=top;align=left;overflow=fill;fontSize=14;fontFamily=Helvetica;html=1;rounded=0;shadow=0;comic=0;labelBackgroundColor=none;strokeWidth=1;">
      <mxGeometry x="56" y="54" width="270" height="232" as="geometry" />
    </mxCell>
    <mxCell id="node14" parent="1" vertex="1" value="&lt;p style=&quot;margin:0px;margin-top:4px;text-align:center;&quot;&gt;&lt;b&gt;Role&lt;/b&gt;&lt;/p&gt;&lt;hr size=&quot;1&quot;/&gt;&lt;p style=&quot;margin:0 0 0 4px;line-height:1.6;&quot;&gt;- name: String&lt;br/&gt;- id: Long&lt;/p&gt;&lt;hr size=&quot;1&quot;/&gt;&lt;p style=&quot;margin:0 0 0 4px;line-height:1.6;&quot;&gt;+ setName(String): void&lt;br/&gt;+ getId(): Long&lt;br/&gt;+ setId(Long): void&lt;br/&gt;+ getName(): String&lt;/p&gt;" style="verticalAlign=top;align=left;overflow=fill;fontSize=14;fontFamily=Helvetica;html=1;rounded=0;shadow=0;comic=0;labelBackgroundColor=none;strokeWidth=1;">
      <mxGeometry x="6208" y="78" width="181" height="184" as="geometry" />
    </mxCell>
    <mxCell id="node50" parent="1" vertex="1" value="&lt;p style=&quot;margin:0px;margin-top:4px;text-align:center;&quot;&gt;&lt;b&gt;Scale&lt;/b&gt;&lt;/p&gt;&lt;hr size=&quot;1&quot;/&gt;&lt;p style=&quot;margin:0 0 0 4px;line-height:1.6;&quot;&gt;- id: Long&lt;br/&gt;- description: String&lt;br/&gt;- name: String&lt;br/&gt;- interpretations: List&amp;lt;Interpretation&amp;gt;&lt;br/&gt;- forms: List&amp;lt;Form&amp;gt;&lt;/p&gt;&lt;hr size=&quot;1&quot;/&gt;&lt;p style=&quot;margin:0 0 0 4px;line-height:1.6;&quot;&gt;+ getId(): Long&lt;br/&gt;+ hashCode(): int&lt;br/&gt;+ setDescription(String): void&lt;br/&gt;+ setInterpretations(List&amp;lt;Interpretation&amp;gt;): void&lt;br/&gt;+ setId(Long): void&lt;br/&gt;+ getName(): String&lt;br/&gt;+ getDescription(): String&lt;br/&gt;+ setName(String): void&lt;br/&gt;+ getForms(): List&amp;lt;Form&amp;gt;&lt;br/&gt;+ setForms(List&amp;lt;Form&amp;gt;): void&lt;br/&gt;+ equals(Object): boolean&lt;br/&gt;+ builder(): ScaleBuilder&lt;br/&gt;+ getInterpretations(): List&amp;lt;Interpretation&amp;gt;&lt;/p&gt;" style="verticalAlign=top;align=left;overflow=fill;fontSize=14;fontFamily=Helvetica;html=1;rounded=0;shadow=0;comic=0;labelBackgroundColor=none;strokeWidth=1;">
      <mxGeometry x="5846" y="1388" width="327" height="472" as="geometry" />
    </mxCell>
    <mxCell id="node15" parent="1" vertex="1" value="&lt;p style=&quot;margin:0px;margin-top:4px;text-align:center;&quot;&gt;&lt;b&gt;ScaleController&lt;/b&gt;&lt;/p&gt;&lt;hr size=&quot;1&quot;/&gt;&lt;p style=&quot;margin:0 0 0 4px;line-height:1.6;&quot;&gt;- scaleService: ScaleServiceImpl&lt;/p&gt;&lt;hr size=&quot;1&quot;/&gt;&lt;p style=&quot;margin:0 0 0 4px;line-height:1.6;&quot;&gt;+ addScale(ScaleDto): ResponseEntity&amp;lt;?&amp;gt;&lt;br/&gt;+ getAll(): ResponseEntity&amp;lt;?&amp;gt;&lt;br/&gt;+ deleteScale(Long): ResponseEntity&amp;lt;?&amp;gt;&lt;/p&gt;" style="verticalAlign=top;align=left;overflow=fill;fontSize=14;fontFamily=Helvetica;html=1;rounded=0;shadow=0;comic=0;labelBackgroundColor=none;strokeWidth=1;">
      <mxGeometry x="6462" y="3008" width="296" height="147" as="geometry" />
    </mxCell>
    <mxCell id="node12" parent="1" vertex="1" value="&lt;p style=&quot;margin:0px;margin-top:4px;text-align:center;&quot;&gt;&lt;b&gt;ScaleDto&lt;/b&gt;&lt;/p&gt;&lt;hr size=&quot;1&quot;/&gt;&lt;p style=&quot;margin:0 0 0 4px;line-height:1.6;&quot;&gt;- name: String&lt;br/&gt;- description: String&lt;br/&gt;- id: Long&lt;/p&gt;&lt;hr size=&quot;1&quot;/&gt;&lt;p style=&quot;margin:0 0 0 4px;line-height:1.6;&quot;&gt;+ getId(): Long&lt;br/&gt;+ getName(): String&lt;br/&gt;+ setName(String): void&lt;br/&gt;+ getDescription(): String&lt;br/&gt;+ setDescription(String): void&lt;br/&gt;+ setId(Long): void&lt;br/&gt;+ builder(): ScaleDtoBuilder&lt;/p&gt;" style="verticalAlign=top;align=left;overflow=fill;fontSize=14;fontFamily=Helvetica;html=1;rounded=0;shadow=0;comic=0;labelBackgroundColor=none;strokeWidth=1;">
      <mxGeometry x="2661" y="647" width="216" height="280" as="geometry" />
    </mxCell>
    <mxCell id="node22" parent="1" vertex="1" value="&lt;p style=&quot;margin:0px;margin-top:4px;text-align:center;&quot;&gt;&lt;i&gt;&amp;lt;&amp;lt;interface&amp;gt;&amp;gt;&lt;/i&gt;&lt;br/&gt;&lt;b&gt;ScaleMapper&lt;/b&gt;&lt;/p&gt;&lt;hr size=&quot;1&quot;/&gt;&lt;p style=&quot;margin:0 0 0 4px;line-height:1.6;&quot;&gt;+ toEntity(ScaleDto): Scale&lt;br/&gt;+ toDto(Scale): ScaleDto&lt;/p&gt;" style="verticalAlign=top;align=left;overflow=fill;fontSize=14;fontFamily=Helvetica;html=1;rounded=0;shadow=0;comic=0;labelBackgroundColor=none;strokeWidth=1;">
      <mxGeometry x="5382" y="1915" width="199" height="109" as="geometry" />
    </mxCell>
    <mxCell id="node40" parent="1" vertex="1" value="&lt;p style=&quot;margin:0px;margin-top:4px;text-align:center;&quot;&gt;&lt;b&gt;ScaleMapperImpl&lt;/b&gt;&lt;/p&gt;&lt;hr size=&quot;1&quot;/&gt;&lt;p style=&quot;margin:0 0 0 4px;line-height:1.6;&quot;&gt;+ toDto(Scale): ScaleDto&lt;br/&gt;+ toEntity(ScaleDto): Scale&lt;/p&gt;" style="verticalAlign=top;align=left;overflow=fill;fontSize=14;fontFamily=Helvetica;html=1;rounded=0;shadow=0;comic=0;labelBackgroundColor=none;strokeWidth=1;">
      <mxGeometry x="5690" y="2657" width="199" height="94" as="geometry" />
    </mxCell>
    <mxCell id="node26" parent="1" vertex="1" value="&lt;p style=&quot;margin:0px;margin-top:4px;text-align:center;&quot;&gt;&lt;i&gt;&amp;lt;&amp;lt;interface&amp;gt;&amp;gt;&lt;/i&gt;&lt;br/&gt;&lt;b&gt;ScaleRepository&lt;/b&gt;&lt;/p&gt;&lt;hr size=&quot;1&quot;/&gt;" style="verticalAlign=top;align=left;overflow=fill;fontSize=14;fontFamily=Helvetica;html=1;rounded=0;shadow=0;comic=0;labelBackgroundColor=none;strokeWidth=1;">
      <mxGeometry x="5128" y="2208" width="174" height="35" as="geometry" />
    </mxCell>
    <mxCell id="node51" parent="1" vertex="1" value="&lt;p style=&quot;margin:0px;margin-top:4px;text-align:center;&quot;&gt;&lt;b&gt;ScaleService&lt;/b&gt;&lt;/p&gt;&lt;hr size=&quot;1&quot;/&gt;&lt;p style=&quot;margin:0 0 0 4px;line-height:1.6;&quot;&gt;- scaleRepository: ScaleRepository&lt;br/&gt;- scaleMapper: ScaleMapper&lt;/p&gt;&lt;hr size=&quot;1&quot;/&gt;&lt;p style=&quot;margin:0 0 0 4px;line-height:1.6;&quot;&gt;+ addScale(ScaleDto): ScaleDto&lt;br/&gt;+ deleteScale(Long): void&lt;br/&gt;+ getScales(): List&amp;lt;ScaleDto&amp;gt;&lt;/p&gt;" style="verticalAlign=top;align=left;overflow=fill;fontSize=14;fontFamily=Helvetica;html=1;rounded=0;shadow=0;comic=0;labelBackgroundColor=none;strokeWidth=1;">
      <mxGeometry x="5409" y="2620" width="251" height="160" as="geometry" />
    </mxCell>
    <mxCell id="node43" parent="1" vertex="1" value="&lt;p style=&quot;margin:0px;margin-top:4px;text-align:center;&quot;&gt;&lt;b&gt;ScaleServiceImpl&lt;/b&gt;&lt;/p&gt;&lt;hr size=&quot;1&quot;/&gt;&lt;p style=&quot;margin:0 0 0 4px;line-height:1.6;&quot;&gt;- scaleRepository: ScaleRepository&lt;br/&gt;- scaleMapper: ScaleMapper&lt;/p&gt;&lt;hr size=&quot;1&quot;/&gt;&lt;p style=&quot;margin:0 0 0 4px;line-height:1.6;&quot;&gt;+ addScale(ScaleDto): ScaleDto&lt;br/&gt;+ deleteScale(Long): void&lt;br/&gt;+ getScales(): List&amp;lt;ScaleDto&amp;gt;&lt;/p&gt;" style="verticalAlign=top;align=left;overflow=fill;fontSize=14;fontFamily=Helvetica;html=1;rounded=0;shadow=0;comic=0;labelBackgroundColor=none;strokeWidth=1;">
      <mxGeometry x="5128" y="2620" width="251" height="160" as="geometry" />
    </mxCell>
    <mxCell id="node21" parent="1" vertex="1" value="&lt;p style=&quot;margin:0px;margin-top:4px;text-align:center;&quot;&gt;&lt;b&gt;SecurityConfig&lt;/b&gt;&lt;/p&gt;&lt;hr size=&quot;1&quot;/&gt;&lt;p style=&quot;margin:0 0 0 4px;line-height:1.6;&quot;&gt;- jwtRequestFilter: JwtRequestFilter&lt;/p&gt;&lt;hr size=&quot;1&quot;/&gt;&lt;p style=&quot;margin:0 0 0 4px;line-height:1.6;&quot;&gt;~ mvc(HandlerMappingIntrospector): Builder&lt;br/&gt;+ passwordEncoder(): PasswordEncoder&lt;br/&gt;+ authenticationManager(AuthenticationConfiguration): AuthenticationManager&lt;br/&gt;+ securityFilterChain(HttpSecurity, Builder): SecurityFilterChain&lt;/p&gt;" style="verticalAlign=top;align=left;overflow=fill;fontSize=14;fontFamily=Helvetica;html=1;rounded=0;shadow=0;comic=0;labelBackgroundColor=none;strokeWidth=1;">
      <mxGeometry x="4547" y="2142" width="531" height="160" as="geometry" />
    </mxCell>
    <mxCell id="node24" parent="1" vertex="1" value="&lt;p style=&quot;margin:0px;margin-top:4px;text-align:center;&quot;&gt;&lt;b&gt;User&lt;/b&gt;&lt;/p&gt;&lt;hr size=&quot;1&quot;/&gt;&lt;p style=&quot;margin:0 0 0 4px;line-height:1.6;&quot;&gt;- username: String&lt;br/&gt;- roles: Set&amp;lt;Role&amp;gt;&lt;br/&gt;- id: Long&lt;br/&gt;- password: String&lt;/p&gt;&lt;hr size=&quot;1&quot;/&gt;&lt;p style=&quot;margin:0 0 0 4px;line-height:1.6;&quot;&gt;+ setPassword(String): void&lt;br/&gt;+ setUsername(String): void&lt;br/&gt;+ getRoles(): Set&amp;lt;Role&amp;gt;&lt;br/&gt;+ setRoles(Set&amp;lt;Role&amp;gt;): void&lt;br/&gt;+ getPassword(): String&lt;br/&gt;+ getUsername(): String&lt;br/&gt;+ getId(): Long&lt;br/&gt;+ setId(Long): void&lt;/p&gt;" style="verticalAlign=top;align=left;overflow=fill;fontSize=14;fontFamily=Helvetica;html=1;rounded=0;shadow=0;comic=0;labelBackgroundColor=none;strokeWidth=1;">
      <mxGeometry x="6124" y="623" width="209" height="328" as="geometry" />
    </mxCell>
    <mxCell id="node48" parent="1" vertex="1" value="&lt;p style=&quot;margin:0px;margin-top:4px;text-align:center;&quot;&gt;&lt;b&gt;UserJwtResponse&lt;/b&gt;&lt;/p&gt;&lt;hr size=&quot;1&quot;/&gt;&lt;p style=&quot;margin:0 0 0 4px;line-height:1.6;&quot;&gt;- token: String&lt;br/&gt;- roles: List&amp;lt;String&amp;gt;&lt;/p&gt;&lt;hr size=&quot;1&quot;/&gt;&lt;p style=&quot;margin:0 0 0 4px;line-height:1.6;&quot;&gt;+ hashCode(): int&lt;br/&gt;+ toString(): String&lt;br/&gt;# canEqual(Object): boolean&lt;br/&gt;+ equals(Object): boolean&lt;br/&gt;+ getRoles(): List&amp;lt;String&amp;gt;&lt;br/&gt;+ getToken(): String&lt;br/&gt;+ builder(): UserJwtResponseBuilder&lt;/p&gt;" style="verticalAlign=top;align=left;overflow=fill;fontSize=14;fontFamily=Helvetica;html=1;rounded=0;shadow=0;comic=0;labelBackgroundColor=none;strokeWidth=1;">
      <mxGeometry x="7443" y="659" width="263" height="256" as="geometry" />
    </mxCell>
    <mxCell id="node53" parent="1" vertex="1" value="&lt;p style=&quot;margin:0px;margin-top:4px;text-align:center;&quot;&gt;&lt;b&gt;UserJwtResponseBuilder&lt;/b&gt;&lt;/p&gt;&lt;hr size=&quot;1&quot;/&gt;&lt;p style=&quot;margin:0 0 0 4px;line-height:1.6;&quot;&gt;- roles: List&amp;lt;String&amp;gt;&lt;br/&gt;- token: String&lt;/p&gt;&lt;hr size=&quot;1&quot;/&gt;&lt;p style=&quot;margin:0 0 0 4px;line-height:1.6;&quot;&gt;+ build(): UserJwtResponse&lt;br/&gt;+ roles(List&amp;lt;String&amp;gt;): UserJwtResponseBuilder&lt;br/&gt;+ toString(): String&lt;br/&gt;+ token(String): UserJwtResponseBuilder&lt;/p&gt;" style="verticalAlign=top;align=left;overflow=fill;fontSize=14;fontFamily=Helvetica;html=1;rounded=0;shadow=0;comic=0;labelBackgroundColor=none;strokeWidth=1;">
      <mxGeometry x="7055" y="695" width="328" height="184" as="geometry" />
    </mxCell>
    <mxCell id="node42" parent="1" vertex="1" value="&lt;p style=&quot;margin:0px;margin-top:4px;text-align:center;&quot;&gt;&lt;i&gt;&amp;lt;&amp;lt;interface&amp;gt;&amp;gt;&lt;/i&gt;&lt;br/&gt;&lt;b&gt;UserRepository&lt;/b&gt;&lt;/p&gt;&lt;hr size=&quot;1&quot;/&gt;&lt;p style=&quot;margin:0 0 0 4px;line-height:1.6;&quot;&gt;+ findAll(): List&amp;lt;User&amp;gt;&lt;br/&gt;+ findByUsername(String): Optional&amp;lt;User&amp;gt;&lt;/p&gt;" style="verticalAlign=top;align=left;overflow=fill;fontSize=14;fontFamily=Helvetica;html=1;rounded=0;shadow=0;comic=0;labelBackgroundColor=none;strokeWidth=1;">
      <mxGeometry x="4012" y="744" width="302" height="109" as="geometry" />
    </mxCell>
    <mxCell id="node5" parent="1" vertex="1" value="&lt;p style=&quot;margin:0px;margin-top:4px;text-align:center;&quot;&gt;&lt;b&gt;UserService&lt;/b&gt;&lt;/p&gt;&lt;hr size=&quot;1&quot;/&gt;&lt;p style=&quot;margin:0 0 0 4px;line-height:1.6;&quot;&gt;- userRepository: UserRepository&lt;/p&gt;&lt;hr size=&quot;1&quot;/&gt;&lt;p style=&quot;margin:0 0 0 4px;line-height:1.6;&quot;&gt;+ loadUserByUsername(String): UserDetails&lt;br/&gt;+ findByUsername(String): User&lt;/p&gt;" style="verticalAlign=top;align=left;overflow=fill;fontSize=14;fontFamily=Helvetica;html=1;rounded=0;shadow=0;comic=0;labelBackgroundColor=none;strokeWidth=1;">
      <mxGeometry x="4364" y="731" width="306" height="121" as="geometry" />
    </mxCell>
    <mxCell id="node47" parent="1" vertex="1" value="&lt;p style=&quot;margin:0px;margin-top:4px;text-align:center;&quot;&gt;&lt;b&gt;Variant&lt;/b&gt;&lt;/p&gt;&lt;hr size=&quot;1&quot;/&gt;&lt;p style=&quot;margin:0 0 0 4px;line-height:1.6;&quot;&gt;- question_id: Question&lt;br/&gt;- id: Long&lt;br/&gt;- score: Double&lt;br/&gt;- content: String&lt;/p&gt;&lt;hr size=&quot;1&quot;/&gt;&lt;p style=&quot;margin:0 0 0 4px;line-height:1.6;&quot;&gt;+ hashCode(): int&lt;br/&gt;+ equals(Object): boolean&lt;br/&gt;+ setId(Long): void&lt;br/&gt;+ getQuestion_id(): Question&lt;br/&gt;+ getScore(): Double&lt;br/&gt;+ setQuestion_id(Question): void&lt;br/&gt;+ builder(): VariantBuilder&lt;br/&gt;+ getContent(): String&lt;br/&gt;+ setContent(String): void&lt;br/&gt;+ setScore(Double): void&lt;br/&gt;+ getId(): Long&lt;/p&gt;" style="verticalAlign=top;align=left;overflow=fill;fontSize=14;fontFamily=Helvetica;html=1;rounded=0;shadow=0;comic=0;labelBackgroundColor=none;strokeWidth=1;">
      <mxGeometry x="5172" y="-30" width="239" height="400" as="geometry" />
    </mxCell>
    <mxCell id="node52" parent="1" vertex="1" value="&lt;p style=&quot;margin:0px;margin-top:4px;text-align:center;&quot;&gt;&lt;b&gt;VariantDto&lt;/b&gt;&lt;/p&gt;&lt;hr size=&quot;1&quot;/&gt;&lt;p style=&quot;margin:0 0 0 4px;line-height:1.6;&quot;&gt;- id: Long?&lt;br/&gt;- content: String?&lt;br/&gt;- score: Double?&lt;/p&gt;&lt;hr size=&quot;1&quot;/&gt;&lt;p style=&quot;margin:0 0 0 4px;line-height:1.6;&quot;&gt;+ getId(): Long?&lt;br/&gt;+ setContent(String?): void&lt;br/&gt;+ setId(Long?): void&lt;br/&gt;+ builder(): VariantDtoBuilder&lt;br/&gt;+ setScore(Double?): void&lt;br/&gt;+ getContent(): String?&lt;br/&gt;+ getScore(): Double?&lt;/p&gt;" style="verticalAlign=top;align=left;overflow=fill;fontSize=14;fontFamily=Helvetica;html=1;rounded=0;shadow=0;comic=0;labelBackgroundColor=none;strokeWidth=1;">
      <mxGeometry x="1242" y="30" width="214" height="280" as="geometry" />
    </mxCell>
    <mxCell id="node2" parent="1" vertex="1" value="&lt;p style=&quot;margin:0px;margin-top:4px;text-align:center;&quot;&gt;&lt;i&gt;&amp;lt;&amp;lt;interface&amp;gt;&amp;gt;&lt;/i&gt;&lt;br/&gt;&lt;b&gt;VariantMapper&lt;/b&gt;&lt;/p&gt;&lt;hr size=&quot;1&quot;/&gt;&lt;p style=&quot;margin:0 0 0 4px;line-height:1.6;&quot;&gt;+ toDto(Variant): VariantDto&lt;br/&gt;+ toEntity(VariantDto): Variant&lt;br/&gt;+ toDtoSet(Set&amp;lt;Variant&amp;gt;): Set&amp;lt;VariantDto&amp;gt;&lt;br/&gt;+ toEntitySet(Set&amp;lt;VariantDto&amp;gt;): Set&amp;lt;Variant&amp;gt;&lt;/p&gt;" style="verticalAlign=top;align=left;overflow=fill;fontSize=14;fontFamily=Helvetica;html=1;rounded=0;shadow=0;comic=0;labelBackgroundColor=none;strokeWidth=1;">
      <mxGeometry x="1612" y="720" width="320" height="169" as="geometry" />
    </mxCell>
    <mxCell id="node29" parent="1" vertex="1" value="&lt;p style=&quot;margin:0px;margin-top:4px;text-align:center;&quot;&gt;&lt;b&gt;VariantMapperImpl&lt;/b&gt;&lt;/p&gt;&lt;hr size=&quot;1&quot;/&gt;&lt;p style=&quot;margin:0 0 0 4px;line-height:1.6;&quot;&gt;+ toDto(Variant): VariantDto&lt;br/&gt;+ toDtoSet(Set&amp;lt;Variant&amp;gt;): Set&amp;lt;VariantDto&amp;gt;&lt;br/&gt;+ toEntitySet(Set&amp;lt;VariantDto&amp;gt;): Set&amp;lt;Variant&amp;gt;&lt;br/&gt;+ toEntity(VariantDto): Variant&lt;/p&gt;" style="verticalAlign=top;align=left;overflow=fill;fontSize=14;fontFamily=Helvetica;html=1;rounded=0;shadow=0;comic=0;labelBackgroundColor=none;strokeWidth=1;">
      <mxGeometry x="1242" y="720" width="320" height="146" as="geometry" />
    </mxCell>
    <mxCell id="node19" parent="1" vertex="1" value="&lt;p style=&quot;margin:0px;margin-top:4px;text-align:center;&quot;&gt;&lt;i&gt;&amp;lt;&amp;lt;interface&amp;gt;&amp;gt;&lt;/i&gt;&lt;br/&gt;&lt;b&gt;VariantRepository&lt;/b&gt;&lt;/p&gt;&lt;hr size=&quot;1&quot;/&gt;&lt;p style=&quot;margin:0 0 0 4px;line-height:1.6;&quot;&gt;+ findById(Long): Optional&amp;lt;Variant&amp;gt;&lt;br/&gt;+ findAll(): List&amp;lt;Variant&amp;gt;&lt;br/&gt;+ deleteByQuestion_id(Long): void&lt;/p&gt;" style="verticalAlign=top;align=left;overflow=fill;fontSize=14;fontFamily=Helvetica;html=1;rounded=0;shadow=0;comic=0;labelBackgroundColor=none;strokeWidth=1;">
      <mxGeometry x="3316" y="732" width="257" height="139" as="geometry" />
    </mxCell>
    <mxCell id="node9" parent="1" vertex="1" value="&lt;p style=&quot;margin:0px;margin-top:4px;text-align:center;&quot;&gt;&lt;b&gt;VariantService&lt;/b&gt;&lt;/p&gt;&lt;hr size=&quot;1&quot;/&gt;&lt;p style=&quot;margin:0 0 0 4px;line-height:1.6;&quot;&gt;- variantRepository: VariantRepository&lt;br/&gt;- variantMapper: VariantMapper&lt;/p&gt;&lt;hr size=&quot;1&quot;/&gt;&lt;p style=&quot;margin:0 0 0 4px;line-height:1.6;&quot;&gt;+ deleteByQuestionId(Long): void&lt;br/&gt;+ processVariants(Set&amp;lt;VariantDto&amp;gt;, Question): void&lt;br/&gt;+ getVariantById(Long): Variant&lt;/p&gt;" style="verticalAlign=top;align=left;overflow=fill;fontSize=14;fontFamily=Helvetica;html=1;rounded=0;shadow=0;comic=0;labelBackgroundColor=none;strokeWidth=1;">
      <mxGeometry x="2907" y="707" width="359" height="160" as="geometry" />
    </mxCell>
    <mxCell id="node41" parent="1" vertex="1" value="&lt;p style=&quot;margin:0px;margin-top:4px;text-align:center;&quot;&gt;&lt;b&gt;VariantServiceImpl&lt;/b&gt;&lt;/p&gt;&lt;hr size=&quot;1&quot;/&gt;&lt;p style=&quot;margin:0 0 0 4px;line-height:1.6;&quot;&gt;- variantRepository: VariantRepository&lt;br/&gt;- variantMapper: VariantMapper&lt;/p&gt;&lt;hr size=&quot;1&quot;/&gt;&lt;p style=&quot;margin:0 0 0 4px;line-height:1.6;&quot;&gt;+ deleteByQuestionId(Long): void&lt;br/&gt;+ processVariants(Set&amp;lt;VariantDto&amp;gt;, Question): void&lt;br/&gt;+ getVariantById(Long): Variant&lt;/p&gt;" style="verticalAlign=top;align=left;overflow=fill;fontSize=14;fontFamily=Helvetica;html=1;rounded=0;shadow=0;comic=0;labelBackgroundColor=none;strokeWidth=1;">
      <mxGeometry x="3623" y="707" width="359" height="160" as="geometry" />
    </mxCell>
    <mxCell id="edge45" edge="1" value="" parent="1" source="node39" target="node4" style="html=1;rounded=1;edgeStyle=orthogonalEdgeStyle;dashed=0;startArrow=diamondThinstartSize=12;endArrow=openThin;endSize=12;strokeColor=#595959;exitX=0.500;exitY=0.000;exitDx=0;exitDy=0;entryX=0.500;entryY=1.000;entryDx=0;entryDy=0;">
      <mxGeometry width="50" height="50" relative="1" as="geometry">
        <Array as="points" />
      </mxGeometry>
    </mxCell>
    <mxCell id="label270" parent="edge45" vertex="1" connectable="0" value="1" style="edgeLabel;resizable=0;html=1;align=left;verticalAlign=top;strokeColor=default;">
      <mxGeometry x="7474" y="2153" as="geometry" />
    </mxCell>
    <mxCell id="label274" parent="edge45" vertex="1" connectable="0" value="1" style="edgeLabel;resizable=0;html=1;align=left;verticalAlign=top;strokeColor=default;">
      <mxGeometry x="7474" y="1697" as="geometry" />
    </mxCell>
    <mxCell id="label275" parent="edge45" vertex="1" connectable="0" value="authenticationService" style="edgeLabel;resizable=0;html=1;align=left;verticalAlign=top;strokeColor=default;">
      <mxGeometry x="7485" y="1697" as="geometry" />
    </mxCell>
    <mxCell id="edge12" edge="1" value="" parent="1" source="node4" target="node46" style="html=1;rounded=1;edgeStyle=orthogonalEdgeStyle;dashed=0;startArrow=diamondThinstartSize=12;endArrow=openThin;endSize=12;strokeColor=#595959;exitX=0.250;exitY=0.000;exitDx=0;exitDy=0;entryX=0.500;entryY=1.000;entryDx=0;entryDy=0;">
      <mxGeometry width="50" height="50" relative="1" as="geometry">
        <Array as="points">
          <mxPoint x="7394" y="1546" />
          <mxPoint x="6857" y="1546" />
          <mxPoint x="6857" y="1286" />
          <mxPoint x="6837" y="1286" />
        </Array>
      </mxGeometry>
    </mxCell>
    <mxCell id="label72" parent="edge12" vertex="1" connectable="0" value="1" style="edgeLabel;resizable=0;html=1;align=left;verticalAlign=top;strokeColor=default;">
      <mxGeometry x="7389" y="1526" as="geometry" />
    </mxCell>
    <mxCell id="label76" parent="edge12" vertex="1" connectable="0" value="1" style="edgeLabel;resizable=0;html=1;align=left;verticalAlign=top;strokeColor=default;">
      <mxGeometry x="6826" y="824" as="geometry" />
    </mxCell>
    <mxCell id="label77" parent="edge12" vertex="1" connectable="0" value="doctorRepository" style="edgeLabel;resizable=0;html=1;align=left;verticalAlign=top;strokeColor=default;">
      <mxGeometry x="6837" y="824" as="geometry" />
    </mxCell>
    <mxCell id="edge33" edge="1" value="" parent="1" source="node4" target="node11" style="html=1;rounded=1;edgeStyle=orthogonalEdgeStyle;dashed=0;startArrow=diamondThinstartSize=12;endArrow=openThin;endSize=12;strokeColor=#595959;exitX=0.250;exitY=0.000;exitDx=0;exitDy=0;entryX=0.500;entryY=1.000;entryDx=0;entryDy=0;">
      <mxGeometry width="50" height="50" relative="1" as="geometry">
        <Array as="points">
          <mxPoint x="7394" y="1546" />
          <mxPoint x="6857" y="1546" />
          <mxPoint x="6857" y="1164" />
          <mxPoint x="4813" y="1164" />
          <mxPoint x="4813" y="954" />
          <mxPoint x="4871" y="954" />
        </Array>
      </mxGeometry>
    </mxCell>
    <mxCell id="label198" parent="edge33" vertex="1" connectable="0" value="1" style="edgeLabel;resizable=0;html=1;align=left;verticalAlign=top;strokeColor=default;">
      <mxGeometry x="7255" y="1526" as="geometry" />
    </mxCell>
    <mxCell id="label202" parent="edge33" vertex="1" connectable="0" value="1" style="edgeLabel;resizable=0;html=1;align=left;verticalAlign=top;strokeColor=default;">
      <mxGeometry x="4802" y="997" as="geometry" />
    </mxCell>
    <mxCell id="label203" parent="edge33" vertex="1" connectable="0" value="jwtUtils" style="edgeLabel;resizable=0;html=1;align=left;verticalAlign=top;strokeColor=default;">
      <mxGeometry x="4813" y="997" as="geometry" />
    </mxCell>
    <mxCell id="edge43" edge="1" value="" parent="1" source="node4" target="node48" style="html=1;rounded=1;edgeStyle=orthogonalEdgeStyle;dashed=1;startArrow=none;endArrow=openThin;endSize=12;strokeColor=#595959;exitX=0.750;exitY=0.000;exitDx=0;exitDy=0;entryX=0.500;entryY=1.000;entryDx=0;entryDy=0;">
      <mxGeometry width="50" height="50" relative="1" as="geometry">
        <Array as="points" />
      </mxGeometry>
    </mxCell>
    <mxCell id="edge68" edge="1" value="" parent="1" source="node37" target="node24" style="html=1;rounded=1;edgeStyle=orthogonalEdgeStyle;dashed=0;startArrow=diamondThinstartSize=12;endArrow=openThin;endSize=12;strokeColor=#595959;exitX=0.000;exitY=0.500;exitDx=0;exitDy=0;entryX=1.000;entryY=0.500;entryDx=0;entryDy=0;">
      <mxGeometry width="50" height="50" relative="1" as="geometry">
        <Array as="points" />
      </mxGeometry>
    </mxCell>
    <mxCell id="label408" parent="edge68" vertex="1" connectable="0" value="1" style="edgeLabel;resizable=0;html=1;align=left;verticalAlign=top;strokeColor=default;">
      <mxGeometry x="6365" y="767" as="geometry" />
    </mxCell>
    <mxCell id="label412" parent="edge68" vertex="1" connectable="0" value="1" style="edgeLabel;resizable=0;html=1;align=left;verticalAlign=top;strokeColor=default;">
      <mxGeometry x="6340" y="767" as="geometry" />
    </mxCell>
    <mxCell id="label413" parent="edge68" vertex="1" connectable="0" value="user" style="edgeLabel;resizable=0;html=1;align=left;verticalAlign=top;strokeColor=default;">
      <mxGeometry x="6344" y="787" as="geometry" />
    </mxCell>
    <mxCell id="edge29" edge="1" value="" parent="1" source="node36" target="node25" style="html=1;rounded=1;edgeStyle=orthogonalEdgeStyle;dashed=0;startArrow=diamondThinstartSize=12;endArrow=openThin;endSize=12;strokeColor=#595959;exitX=0.000;exitY=0.250;exitDx=0;exitDy=0;entryX=1.000;entryY=0.250;entryDx=0;entryDy=0;">
      <mxGeometry width="50" height="50" relative="1" as="geometry">
        <Array as="points">
          <mxPoint x="5736" y="669" />
          <mxPoint x="5736" y="699" />
        </Array>
      </mxGeometry>
    </mxCell>
    <mxCell id="label174" parent="edge29" vertex="1" connectable="0" value="1" style="edgeLabel;resizable=0;html=1;align=left;verticalAlign=top;strokeColor=default;">
      <mxGeometry x="5743" y="649" as="geometry" />
    </mxCell>
    <mxCell id="label178" parent="edge29" vertex="1" connectable="0" value="*" style="edgeLabel;resizable=0;html=1;align=left;verticalAlign=top;strokeColor=default;">
      <mxGeometry x="5714" y="679" as="geometry" />
    </mxCell>
    <mxCell id="label179" parent="edge29" vertex="1" connectable="0" value="formQuestions" style="edgeLabel;resizable=0;html=1;align=left;verticalAlign=top;strokeColor=default;">
      <mxGeometry x="5693" y="709" as="geometry" />
    </mxCell>
    <mxCell id="edge102" edge="1" value="" parent="1" source="node36" target="node50" style="html=1;rounded=1;edgeStyle=orthogonalEdgeStyle;dashed=0;startArrow=diamondThinstartSize=12;endArrow=openThin;endSize=12;strokeColor=#595959;exitX=0.500;exitY=1.000;exitDx=0;exitDy=0;entryX=0.250;entryY=0.000;entryDx=0;entryDy=0;">
      <mxGeometry width="50" height="50" relative="1" as="geometry">
        <Array as="points" />
      </mxGeometry>
    </mxCell>
    <mxCell id="label612" parent="edge102" vertex="1" connectable="0" value="1" style="edgeLabel;resizable=0;html=1;align=left;verticalAlign=top;strokeColor=default;">
      <mxGeometry x="5917" y="1028" as="geometry" />
    </mxCell>
    <mxCell id="label616" parent="edge102" vertex="1" connectable="0" value="1" style="edgeLabel;resizable=0;html=1;align=left;verticalAlign=top;strokeColor=default;">
      <mxGeometry x="5917" y="1363" as="geometry" />
    </mxCell>
    <mxCell id="label617" parent="edge102" vertex="1" connectable="0" value="scale" style="edgeLabel;resizable=0;html=1;align=left;verticalAlign=top;strokeColor=default;">
      <mxGeometry x="5928" y="1363" as="geometry" />
    </mxCell>
    <mxCell id="edge7" edge="1" value="" parent="1" source="node1" target="node20" style="html=1;rounded=1;edgeStyle=orthogonalEdgeStyle;dashed=0;startArrow=diamondThinstartSize=12;endArrow=openThin;endSize=12;strokeColor=#595959;exitX=0.500;exitY=0.000;exitDx=0;exitDy=0;entryX=0.100;entryY=1.000;entryDx=0;entryDy=0;">
      <mxGeometry width="50" height="50" relative="1" as="geometry">
        <Array as="points">
          <mxPoint x="135" y="1174" />
          <mxPoint x="-229" y="1174" />
        </Array>
      </mxGeometry>
    </mxCell>
    <mxCell id="label42" parent="edge7" vertex="1" connectable="0" value="1" style="edgeLabel;resizable=0;html=1;align=left;verticalAlign=top;strokeColor=default;">
      <mxGeometry x="124" y="1387" as="geometry" />
    </mxCell>
    <mxCell id="label46" parent="edge7" vertex="1" connectable="0" value="*" style="edgeLabel;resizable=0;html=1;align=left;verticalAlign=top;strokeColor=default;">
      <mxGeometry x="-237" y="1033" as="geometry" />
    </mxCell>
    <mxCell id="label47" parent="edge7" vertex="1" connectable="0" value="questions" style="edgeLabel;resizable=0;html=1;align=left;verticalAlign=top;strokeColor=default;">
      <mxGeometry x="-228" y="1033" as="geometry" />
    </mxCell>
    <mxCell id="edge25" edge="1" value="" parent="1" source="node1" target="node12" style="html=1;rounded=1;edgeStyle=orthogonalEdgeStyle;dashed=0;startArrow=diamondThinstartSize=12;endArrow=openThin;endSize=12;strokeColor=#595959;exitX=0.500;exitY=0.000;exitDx=0;exitDy=0;entryX=0.250;entryY=1.000;entryDx=0;entryDy=0;">
      <mxGeometry width="50" height="50" relative="1" as="geometry">
        <Array as="points">
          <mxPoint x="135" y="1286" />
          <mxPoint x="1783" y="1286" />
          <mxPoint x="1783" y="1174" />
          <mxPoint x="2715" y="1174" />
        </Array>
      </mxGeometry>
    </mxCell>
    <mxCell id="label150" parent="edge25" vertex="1" connectable="0" value="1" style="edgeLabel;resizable=0;html=1;align=left;verticalAlign=top;strokeColor=default;">
      <mxGeometry x="124" y="1339" as="geometry" />
    </mxCell>
    <mxCell id="label154" parent="edge25" vertex="1" connectable="0" value="1" style="edgeLabel;resizable=0;html=1;align=left;verticalAlign=top;strokeColor=default;">
      <mxGeometry x="2704" y="932" as="geometry" />
    </mxCell>
    <mxCell id="label155" parent="edge25" vertex="1" connectable="0" value="scaleId" style="edgeLabel;resizable=0;html=1;align=left;verticalAlign=top;strokeColor=default;">
      <mxGeometry x="2715" y="932" as="geometry" />
    </mxCell>
    <mxCell id="edge37" edge="1" value="" parent="1" source="node0" target="node36" style="html=1;rounded=1;edgeStyle=orthogonalEdgeStyle;dashed=1;startArrow=none;endArrow=openThin;endSize=12;strokeColor=#595959;exitX=0.500;exitY=0.000;exitDx=0;exitDy=0;entryX=0.167;entryY=1.000;entryDx=0;entryDy=0;">
      <mxGeometry width="50" height="50" relative="1" as="geometry">
        <Array as="points">
          <mxPoint x="2400" y="1604" />
          <mxPoint x="4181" y="1604" />
          <mxPoint x="4181" y="1266" />
          <mxPoint x="4141" y="1266" />
          <mxPoint x="4141" y="1144" />
          <mxPoint x="5817" y="1144" />
        </Array>
      </mxGeometry>
    </mxCell>
    <mxCell id="edge20" edge="1" value="" parent="1" source="node0" target="node1" style="html=1;rounded=1;edgeStyle=orthogonalEdgeStyle;dashed=1;startArrow=none;endArrow=openThin;endSize=12;strokeColor=#595959;exitX=0.500;exitY=0.000;exitDx=0;exitDy=0;entryX=0.750;entryY=1.000;entryDx=0;entryDy=0;">
      <mxGeometry width="50" height="50" relative="1" as="geometry">
        <Array as="points">
          <mxPoint x="2400" y="2169" />
          <mxPoint x="248" y="2169" />
          <mxPoint x="248" y="1949" />
          <mxPoint x="208" y="1949" />
        </Array>
      </mxGeometry>
    </mxCell>
    <mxCell id="edge16" edge="1" value="" parent="1" source="node27" target="node36" style="html=1;rounded=1;edgeStyle=orthogonalEdgeStyle;dashed=1;startArrow=none;endArrow=openThin;endSize=12;strokeColor=#595959;exitX=0.167;exitY=0.000;exitDx=0;exitDy=0;entryX=0.167;entryY=1.000;entryDx=0;entryDy=0;">
      <mxGeometry width="50" height="50" relative="1" as="geometry">
        <Array as="points">
          <mxPoint x="2169" y="2598" />
          <mxPoint x="-228" y="2598" />
          <mxPoint x="-228" y="2232" />
          <mxPoint x="-248" y="2232" />
          <mxPoint x="-248" y="1402" />
          <mxPoint x="4161" y="1402" />
          <mxPoint x="4161" y="1266" />
          <mxPoint x="4141" y="1266" />
          <mxPoint x="4141" y="1144" />
          <mxPoint x="5817" y="1144" />
        </Array>
      </mxGeometry>
    </mxCell>
    <mxCell id="edge88" edge="1" value="" parent="1" source="node27" target="node1" style="html=1;rounded=1;edgeStyle=orthogonalEdgeStyle;dashed=1;startArrow=none;endArrow=openThin;endSize=12;strokeColor=#595959;exitX=0.167;exitY=0.000;exitDx=0;exitDy=0;entryX=0.750;entryY=1.000;entryDx=0;entryDy=0;">
      <mxGeometry width="50" height="50" relative="1" as="geometry">
        <Array as="points">
          <mxPoint x="2169" y="2598" />
          <mxPoint x="-228" y="2598" />
          <mxPoint x="-228" y="2232" />
          <mxPoint x="-268" y="2232" />
          <mxPoint x="-268" y="2026" />
          <mxPoint x="208" y="2026" />
        </Array>
      </mxGeometry>
    </mxCell>
    <mxCell id="edge0" edge="1" value="" parent="1" source="node27" target="node0" style="html=1;rounded=1;edgeStyle=orthogonalEdgeStyle;dashed=1;startArrow=none;endArrow=block;endSize=12;strokeColor=#008200;exitX=0.833;exitY=0.000;exitDx=0;exitDy=0;entryX=0.250;entryY=1.000;entryDx=0;entryDy=0;">
      <mxGeometry width="50" height="50" relative="1" as="geometry">
        <Array as="points">
          <mxPoint x="2527" y="2598" />
          <mxPoint x="2328" y="2598" />
        </Array>
      </mxGeometry>
    </mxCell>
    <mxCell id="edge108" edge="1" value="" parent="1" source="node27" target="node25" style="html=1;rounded=1;edgeStyle=orthogonalEdgeStyle;dashed=1;startArrow=none;endArrow=openThin;endSize=12;strokeColor=#595959;exitX=0.167;exitY=0.000;exitDx=0;exitDy=0;entryX=0.500;entryY=1.000;entryDx=0;entryDy=0;">
      <mxGeometry width="50" height="50" relative="1" as="geometry">
        <Array as="points">
          <mxPoint x="2169" y="2598" />
          <mxPoint x="-228" y="2598" />
          <mxPoint x="-228" y="2212" />
          <mxPoint x="-308" y="2212" />
          <mxPoint x="-308" y="1256" />
          <mxPoint x="4201" y="1256" />
          <mxPoint x="4201" y="1094" />
          <mxPoint x="5583" y="1094" />
        </Array>
      </mxGeometry>
    </mxCell>
    <mxCell id="edge81" edge="1" value="" parent="1" source="node27" target="node17" style="html=1;rounded=1;edgeStyle=orthogonalEdgeStyle;dashed=1;startArrow=none;endArrow=openThin;endSize=12;strokeColor=#595959;exitX=0.167;exitY=0.000;exitDx=0;exitDy=0;entryX=0.875;entryY=1.000;entryDx=0;entryDy=0;">
      <mxGeometry width="50" height="50" relative="1" as="geometry">
        <Array as="points">
          <mxPoint x="2169" y="2598" />
          <mxPoint x="-228" y="2598" />
          <mxPoint x="-228" y="2232" />
          <mxPoint x="-188" y="2232" />
          <mxPoint x="-188" y="2192" />
          <mxPoint x="-328" y="2192" />
          <mxPoint x="-328" y="1164" />
          <mxPoint x="-389" y="1164" />
          <mxPoint x="-389" y="1134" />
          <mxPoint x="5363" y="1134" />
        </Array>
      </mxGeometry>
    </mxCell>
    <mxCell id="edge91" edge="1" value="" parent="1" source="node27" target="node20" style="html=1;rounded=1;edgeStyle=orthogonalEdgeStyle;dashed=1;startArrow=none;endArrow=openThin;endSize=12;strokeColor=#595959;exitX=0.167;exitY=0.000;exitDx=0;exitDy=0;entryX=0.300;entryY=1.000;entryDx=0;entryDy=0;">
      <mxGeometry width="50" height="50" relative="1" as="geometry">
        <Array as="points">
          <mxPoint x="2169" y="2598" />
          <mxPoint x="-228" y="2598" />
          <mxPoint x="-228" y="2232" />
          <mxPoint x="-208" y="2232" />
          <mxPoint x="-208" y="2202" />
          <mxPoint x="-348" y="2202" />
          <mxPoint x="-348" y="1184" />
          <mxPoint x="-174" y="1184" />
        </Array>
      </mxGeometry>
    </mxCell>
    <mxCell id="edge90" edge="1" value="" parent="1" source="node27" target="node6" style="html=1;rounded=1;edgeStyle=orthogonalEdgeStyle;dashed=0;startArrow=diamondThinstartSize=12;endArrow=openThin;endSize=12;strokeColor=#595959;exitX=0.500;exitY=0.000;exitDx=0;exitDy=0;entryX=0.500;entryY=1.000;entryDx=0;entryDy=0;">
      <mxGeometry width="50" height="50" relative="1" as="geometry">
        <Array as="points">
          <mxPoint x="2348" y="2408" />
          <mxPoint x="-288" y="2408" />
          <mxPoint x="-288" y="1246" />
          <mxPoint x="-368" y="1246" />
          <mxPoint x="-368" y="1124" />
          <mxPoint x="639" y="1124" />
        </Array>
      </mxGeometry>
    </mxCell>
    <mxCell id="label540" parent="edge90" vertex="1" connectable="0" value="1" style="edgeLabel;resizable=0;html=1;align=left;verticalAlign=top;strokeColor=default;">
      <mxGeometry x="2337" y="2583" as="geometry" />
    </mxCell>
    <mxCell id="label544" parent="edge90" vertex="1" connectable="0" value="1" style="edgeLabel;resizable=0;html=1;align=left;verticalAlign=top;strokeColor=default;">
      <mxGeometry x="628" y="860" as="geometry" />
    </mxCell>
    <mxCell id="label545" parent="edge90" vertex="1" connectable="0" value="questionMapper" style="edgeLabel;resizable=0;html=1;align=left;verticalAlign=top;strokeColor=default;">
      <mxGeometry x="639" y="912" as="geometry" />
    </mxCell>
    <mxCell id="edge41" edge="1" value="" parent="1" source="node27" target="node22" style="html=1;rounded=1;edgeStyle=orthogonalEdgeStyle;dashed=0;startArrow=diamondThinstartSize=12;endArrow=openThin;endSize=12;strokeColor=#595959;exitX=0.500;exitY=0.000;exitDx=0;exitDy=0;entryX=0.250;entryY=1.000;entryDx=0;entryDy=0;">
      <mxGeometry width="50" height="50" relative="1" as="geometry">
        <Array as="points">
          <mxPoint x="2348" y="2408" />
          <mxPoint x="5452" y="2408" />
          <mxPoint x="5452" y="2212" />
          <mxPoint x="5432" y="2212" />
        </Array>
      </mxGeometry>
    </mxCell>
    <mxCell id="label246" parent="edge41" vertex="1" connectable="0" value="1" style="edgeLabel;resizable=0;html=1;align=left;verticalAlign=top;strokeColor=default;">
      <mxGeometry x="2337" y="2548" as="geometry" />
    </mxCell>
    <mxCell id="label250" parent="edge41" vertex="1" connectable="0" value="1" style="edgeLabel;resizable=0;html=1;align=left;verticalAlign=top;strokeColor=default;">
      <mxGeometry x="5421" y="2045" as="geometry" />
    </mxCell>
    <mxCell id="label251" parent="edge41" vertex="1" connectable="0" value="scaleMapper" style="edgeLabel;resizable=0;html=1;align=left;verticalAlign=top;strokeColor=default;">
      <mxGeometry x="5432" y="2097" as="geometry" />
    </mxCell>
    <mxCell id="edge48" edge="1" value="" parent="1" source="node25" target="node36" style="html=1;rounded=1;edgeStyle=orthogonalEdgeStyle;dashed=0;startArrow=diamondThinstartSize=12;endArrow=openThin;endSize=12;strokeColor=#595959;exitX=1.000;exitY=0.750;exitDx=0;exitDy=0;entryX=0.000;entryY=0.750;entryDx=0;entryDy=0;">
      <mxGeometry width="50" height="50" relative="1" as="geometry">
        <Array as="points">
          <mxPoint x="5726" y="875" />
          <mxPoint x="5726" y="905" />
        </Array>
      </mxGeometry>
    </mxCell>
    <mxCell id="label288" parent="edge48" vertex="1" connectable="0" value="1" style="edgeLabel;resizable=0;html=1;align=left;verticalAlign=top;strokeColor=default;">
      <mxGeometry x="5708" y="855" as="geometry" />
    </mxCell>
    <mxCell id="label292" parent="edge48" vertex="1" connectable="0" value="1" style="edgeLabel;resizable=0;html=1;align=left;verticalAlign=top;strokeColor=default;">
      <mxGeometry x="5738" y="885" as="geometry" />
    </mxCell>
    <mxCell id="label293" parent="edge48" vertex="1" connectable="0" value="form" style="edgeLabel;resizable=0;html=1;align=left;verticalAlign=top;strokeColor=default;">
      <mxGeometry x="5726" y="865" as="geometry" />
    </mxCell>
    <mxCell id="edge86" edge="1" value="" parent="1" source="node25" target="node17" style="html=1;rounded=1;edgeStyle=orthogonalEdgeStyle;dashed=0;startArrow=diamondThinstartSize=12;endArrow=openThin;endSize=12;strokeColor=#595959;exitX=0.000;exitY=0.250;exitDx=0;exitDy=0;entryX=1.000;entryY=0.250;entryDx=0;entryDy=0;">
      <mxGeometry width="50" height="50" relative="1" as="geometry">
        <Array as="points">
          <mxPoint x="5439" y="699" />
          <mxPoint x="5439" y="651" />
        </Array>
      </mxGeometry>
    </mxCell>
    <mxCell id="label516" parent="edge86" vertex="1" connectable="0" value="1" style="edgeLabel;resizable=0;html=1;align=left;verticalAlign=top;strokeColor=default;">
      <mxGeometry x="5446" y="679" as="geometry" />
    </mxCell>
    <mxCell id="label520" parent="edge86" vertex="1" connectable="0" value="1" style="edgeLabel;resizable=0;html=1;align=left;verticalAlign=top;strokeColor=default;">
      <mxGeometry x="5416" y="631" as="geometry" />
    </mxCell>
    <mxCell id="label521" parent="edge86" vertex="1" connectable="0" value="question" style="edgeLabel;resizable=0;html=1;align=left;verticalAlign=top;strokeColor=default;">
      <mxGeometry x="5413" y="699" as="geometry" />
    </mxCell>
    <mxCell id="edge57" edge="1" value="" parent="1" source="node23" target="node1" style="html=1;rounded=1;edgeStyle=orthogonalEdgeStyle;dashed=0;startArrow=diamondThinstartSize=12;endArrow=openThin;endSize=12;strokeColor=#595959;exitX=0.500;exitY=0.000;exitDx=0;exitDy=0;entryX=0.250;entryY=1.000;entryDx=0;entryDy=0;">
      <mxGeometry width="50" height="50" relative="1" as="geometry">
        <Array as="points">
          <mxPoint x="-40" y="2036" />
          <mxPoint x="-61" y="2036" />
          <mxPoint x="-61" y="1939" />
          <mxPoint x="62" y="1939" />
        </Array>
      </mxGeometry>
    </mxCell>
    <mxCell id="label342" parent="edge57" vertex="1" connectable="0" value="1" style="edgeLabel;resizable=0;html=1;align=left;verticalAlign=top;strokeColor=default;">
      <mxGeometry x="-91" y="2026" as="geometry" />
    </mxCell>
    <mxCell id="label346" parent="edge57" vertex="1" connectable="0" value="1" style="edgeLabel;resizable=0;html=1;align=left;verticalAlign=top;strokeColor=default;">
      <mxGeometry x="51" y="1841" as="geometry" />
    </mxCell>
    <mxCell id="label347" parent="edge57" vertex="1" connectable="0" value="formDto" style="edgeLabel;resizable=0;html=1;align=left;verticalAlign=top;strokeColor=default;">
      <mxGeometry x="62" y="1841" as="geometry" />
    </mxCell>
    <mxCell id="edge103" edge="1" value="" parent="1" source="node23" target="node20" style="html=1;rounded=1;edgeStyle=orthogonalEdgeStyle;dashed=0;startArrow=diamondThinstartSize=12;endArrow=openThin;endSize=12;strokeColor=#595959;exitX=0.500;exitY=0.000;exitDx=0;exitDy=0;entryX=0.100;entryY=1.000;entryDx=0;entryDy=0;">
      <mxGeometry width="50" height="50" relative="1" as="geometry">
        <Array as="points">
          <mxPoint x="-40" y="1949" />
          <mxPoint x="-228" y="1949" />
        </Array>
      </mxGeometry>
    </mxCell>
    <mxCell id="label618" parent="edge103" vertex="1" connectable="0" value="1" style="edgeLabel;resizable=0;html=1;align=left;verticalAlign=top;strokeColor=default;">
      <mxGeometry x="-140" y="1929" as="geometry" />
    </mxCell>
    <mxCell id="label622" parent="edge103" vertex="1" connectable="0" value="1" style="edgeLabel;resizable=0;html=1;align=left;verticalAlign=top;strokeColor=default;">
      <mxGeometry x="-239" y="1004" as="geometry" />
    </mxCell>
    <mxCell id="label623" parent="edge103" vertex="1" connectable="0" value="questionDto" style="edgeLabel;resizable=0;html=1;align=left;verticalAlign=top;strokeColor=default;">
      <mxGeometry x="-229" y="1004" as="geometry" />
    </mxCell>
    <mxCell id="edge10" edge="1" value="" parent="1" source="node3" target="node25" style="html=1;rounded=1;edgeStyle=orthogonalEdgeStyle;dashed=1;startArrow=none;endArrow=openThin;endSize=12;strokeColor=#595959;exitX=0.500;exitY=0.000;exitDx=0;exitDy=0;entryX=0.500;entryY=1.000;entryDx=0;entryDy=0;">
      <mxGeometry width="50" height="50" relative="1" as="geometry">
        <Array as="points">
          <mxPoint x="1844" y="1256" />
          <mxPoint x="4201" y="1256" />
          <mxPoint x="4201" y="1094" />
          <mxPoint x="5583" y="1094" />
        </Array>
      </mxGeometry>
    </mxCell>
    <mxCell id="edge73" edge="1" value="" parent="1" source="node3" target="node23" style="html=1;rounded=1;edgeStyle=orthogonalEdgeStyle;dashed=1;startArrow=none;endArrow=openThin;endSize=12;strokeColor=#595959;exitX=0.500;exitY=0.000;exitDx=0;exitDy=0;entryX=0.500;entryY=1.000;entryDx=0;entryDy=0;">
      <mxGeometry width="50" height="50" relative="1" as="geometry">
        <Array as="points">
          <mxPoint x="1844" y="2588" />
          <mxPoint x="-40" y="2588" />
        </Array>
      </mxGeometry>
    </mxCell>
    <mxCell id="edge89" edge="1" value="" parent="1" source="node33" target="node36" style="html=1;rounded=1;edgeStyle=orthogonalEdgeStyle;dashed=1;startArrow=none;endArrow=openThin;endSize=12;strokeColor=#595959;exitX=0.833;exitY=0.000;exitDx=0;exitDy=0;entryX=0.167;entryY=1.000;entryDx=0;entryDy=0;">
      <mxGeometry width="50" height="50" relative="1" as="geometry">
        <Array as="points">
          <mxPoint x="77" y="2962" />
          <mxPoint x="128" y="2962" />
          <mxPoint x="128" y="2922" />
          <mxPoint x="5093" y="2922" />
          <mxPoint x="5093" y="1392" />
          <mxPoint x="4121" y="1392" />
          <mxPoint x="4121" y="1266" />
          <mxPoint x="4141" y="1266" />
          <mxPoint x="4141" y="1144" />
          <mxPoint x="5817" y="1144" />
        </Array>
      </mxGeometry>
    </mxCell>
    <mxCell id="edge13" edge="1" value="" parent="1" source="node33" target="node1" style="html=1;rounded=1;edgeStyle=orthogonalEdgeStyle;dashed=1;startArrow=none;endArrow=openThin;endSize=12;strokeColor=#595959;exitX=0.833;exitY=0.000;exitDx=0;exitDy=0;entryX=0.750;entryY=1.000;entryDx=0;entryDy=0;">
      <mxGeometry width="50" height="50" relative="1" as="geometry">
        <Array as="points">
          <mxPoint x="77" y="2962" />
          <mxPoint x="128" y="2962" />
          <mxPoint x="128" y="2212" />
          <mxPoint x="228" y="2212" />
          <mxPoint x="228" y="1949" />
          <mxPoint x="208" y="1949" />
        </Array>
      </mxGeometry>
    </mxCell>
    <mxCell id="edge72" edge="1" value="" parent="1" source="node33" target="node0" style="html=1;rounded=1;edgeStyle=orthogonalEdgeStyle;dashed=0;startArrow=diamondThinstartSize=12;endArrow=openThin;endSize=12;strokeColor=#595959;exitX=0.167;exitY=0.000;exitDx=0;exitDy=0;entryX=0.750;entryY=1.000;entryDx=0;entryDy=0;">
      <mxGeometry width="50" height="50" relative="1" as="geometry">
        <Array as="points">
          <mxPoint x="-199" y="2962" />
          <mxPoint x="-368" y="2962" />
          <mxPoint x="-368" y="2932" />
          <mxPoint x="3129" y="2932" />
          <mxPoint x="3129" y="2310" />
          <mxPoint x="2472" y="2310" />
        </Array>
      </mxGeometry>
    </mxCell>
    <mxCell id="label432" parent="edge72" vertex="1" connectable="0" value="1" style="edgeLabel;resizable=0;html=1;align=left;verticalAlign=top;strokeColor=default;">
      <mxGeometry x="-289" y="2902" as="geometry" />
    </mxCell>
    <mxCell id="label436" parent="edge72" vertex="1" connectable="0" value="1" style="edgeLabel;resizable=0;html=1;align=left;verticalAlign=top;strokeColor=default;">
      <mxGeometry x="2461" y="2278" as="geometry" />
    </mxCell>
    <mxCell id="label437" parent="edge72" vertex="1" connectable="0" value="formMapper" style="edgeLabel;resizable=0;html=1;align=left;verticalAlign=top;strokeColor=default;">
      <mxGeometry x="2601" y="2310" as="geometry" />
    </mxCell>
    <mxCell id="edge105" edge="1" value="" parent="1" source="node33" target="node25" style="html=1;rounded=1;edgeStyle=orthogonalEdgeStyle;dashed=1;startArrow=none;endArrow=openThin;endSize=12;strokeColor=#595959;exitX=0.833;exitY=0.000;exitDx=0;exitDy=0;entryX=0.500;entryY=1.000;entryDx=0;entryDy=0;">
      <mxGeometry width="50" height="50" relative="1" as="geometry">
        <Array as="points">
          <mxPoint x="77" y="2962" />
          <mxPoint x="128" y="2962" />
          <mxPoint x="128" y="2922" />
          <mxPoint x="5113" y="2922" />
          <mxPoint x="5113" y="1256" />
          <mxPoint x="4201" y="1256" />
          <mxPoint x="4201" y="1094" />
          <mxPoint x="5583" y="1094" />
        </Array>
      </mxGeometry>
    </mxCell>
    <mxCell id="edge77" edge="1" value="" parent="1" source="node33" target="node23" style="html=1;rounded=1;edgeStyle=orthogonalEdgeStyle;dashed=1;startArrow=none;endArrow=openThin;endSize=12;strokeColor=#595959;exitX=0.833;exitY=0.000;exitDx=0;exitDy=0;entryX=0.500;entryY=1.000;entryDx=0;entryDy=0;">
      <mxGeometry width="50" height="50" relative="1" as="geometry">
        <Array as="points">
          <mxPoint x="77" y="2962" />
          <mxPoint x="128" y="2962" />
          <mxPoint x="128" y="2922" />
          <mxPoint x="-40" y="2922" />
        </Array>
      </mxGeometry>
    </mxCell>
    <mxCell id="edge1" edge="1" value="" parent="1" source="node33" target="node3" style="html=1;rounded=1;edgeStyle=orthogonalEdgeStyle;dashed=1;startArrow=none;endArrow=block;endSize=12;strokeColor=#008200;exitX=0.500;exitY=0.000;exitDx=0;exitDy=0;entryX=0.500;entryY=1.000;entryDx=0;entryDy=0;">
      <mxGeometry width="50" height="50" relative="1" as="geometry">
        <Array as="points">
          <mxPoint x="-61" y="2952" />
          <mxPoint x="1844" y="2952" />
        </Array>
      </mxGeometry>
    </mxCell>
    <mxCell id="edge110" edge="1" value="" parent="1" source="node33" target="node6" style="html=1;rounded=1;edgeStyle=orthogonalEdgeStyle;dashed=0;startArrow=diamondThinstartSize=12;endArrow=openThin;endSize=12;strokeColor=#595959;exitX=0.167;exitY=0.000;exitDx=0;exitDy=0;entryX=0.500;entryY=1.000;entryDx=0;entryDy=0;">
      <mxGeometry width="50" height="50" relative="1" as="geometry">
        <Array as="points">
          <mxPoint x="-199" y="2962" />
          <mxPoint x="-368" y="2962" />
          <mxPoint x="-368" y="1124" />
          <mxPoint x="639" y="1124" />
        </Array>
      </mxGeometry>
    </mxCell>
    <mxCell id="label660" parent="edge110" vertex="1" connectable="0" value="1" style="edgeLabel;resizable=0;html=1;align=left;verticalAlign=top;strokeColor=default;">
      <mxGeometry x="-289" y="2942" as="geometry" />
    </mxCell>
    <mxCell id="label664" parent="edge110" vertex="1" connectable="0" value="1" style="edgeLabel;resizable=0;html=1;align=left;verticalAlign=top;strokeColor=default;">
      <mxGeometry x="628" y="912" as="geometry" />
    </mxCell>
    <mxCell id="label665" parent="edge110" vertex="1" connectable="0" value="questionMapper" style="edgeLabel;resizable=0;html=1;align=left;verticalAlign=top;strokeColor=default;">
      <mxGeometry x="639" y="860" as="geometry" />
    </mxCell>
    <mxCell id="edge113" edge="1" value="" parent="1" source="node16" target="node25" style="html=1;rounded=1;edgeStyle=orthogonalEdgeStyle;dashed=1;startArrow=none;endArrow=openThin;endSize=12;strokeColor=#595959;exitX=0.500;exitY=0.000;exitDx=0;exitDy=0;entryX=0.500;entryY=1.000;entryDx=0;entryDy=0;">
      <mxGeometry width="50" height="50" relative="1" as="geometry">
        <Array as="points">
          <mxPoint x="3947" y="1256" />
          <mxPoint x="4201" y="1256" />
          <mxPoint x="4201" y="1094" />
          <mxPoint x="5583" y="1094" />
        </Array>
      </mxGeometry>
    </mxCell>
    <mxCell id="edge26" edge="1" value="" parent="1" source="node30" target="node36" style="html=1;rounded=1;edgeStyle=orthogonalEdgeStyle;dashed=1;startArrow=none;endArrow=openThin;endSize=12;strokeColor=#595959;exitX=0.500;exitY=0.000;exitDx=0;exitDy=0;entryX=0.167;entryY=1.000;entryDx=0;entryDy=0;">
      <mxGeometry width="50" height="50" relative="1" as="geometry">
        <Array as="points">
          <mxPoint x="4347" y="1594" />
          <mxPoint x="4141" y="1594" />
          <mxPoint x="4141" y="1144" />
          <mxPoint x="5817" y="1144" />
        </Array>
      </mxGeometry>
    </mxCell>
    <mxCell id="edge53" edge="1" value="" parent="1" source="node49" target="node36" style="html=1;rounded=1;edgeStyle=orthogonalEdgeStyle;dashed=1;startArrow=none;endArrow=openThin;endSize=12;strokeColor=#595959;exitX=0.250;exitY=0.000;exitDx=0;exitDy=0;entryX=0.167;entryY=1.000;entryDx=0;entryDy=0;">
      <mxGeometry width="50" height="50" relative="1" as="geometry">
        <Array as="points">
          <mxPoint x="2763" y="1614" />
          <mxPoint x="3967" y="1614" />
          <mxPoint x="3967" y="1266" />
          <mxPoint x="4141" y="1266" />
          <mxPoint x="4141" y="1144" />
          <mxPoint x="5817" y="1144" />
        </Array>
      </mxGeometry>
    </mxCell>
    <mxCell id="edge94" edge="1" value="" parent="1" source="node49" target="node1" style="html=1;rounded=1;edgeStyle=orthogonalEdgeStyle;dashed=1;startArrow=none;endArrow=openThin;endSize=12;strokeColor=#595959;exitX=0.250;exitY=0.000;exitDx=0;exitDy=0;entryX=0.750;entryY=1.000;entryDx=0;entryDy=0;">
      <mxGeometry width="50" height="50" relative="1" as="geometry">
        <Array as="points">
          <mxPoint x="2763" y="2418" />
          <mxPoint x="168" y="2418" />
          <mxPoint x="168" y="1949" />
          <mxPoint x="208" y="1949" />
        </Array>
      </mxGeometry>
    </mxCell>
    <mxCell id="edge99" edge="1" value="" parent="1" source="node49" target="node0" style="html=1;rounded=1;edgeStyle=orthogonalEdgeStyle;dashed=0;startArrow=diamondThinstartSize=12;endArrow=openThin;endSize=12;strokeColor=#595959;exitX=0.750;exitY=0.000;exitDx=0;exitDy=0;entryX=0.750;entryY=1.000;entryDx=0;entryDy=0;">
      <mxGeometry width="50" height="50" relative="1" as="geometry">
        <Array as="points">
          <mxPoint x="2997" y="2428" />
          <mxPoint x="3129" y="2428" />
          <mxPoint x="3129" y="2310" />
          <mxPoint x="2472" y="2310" />
        </Array>
      </mxGeometry>
    </mxCell>
    <mxCell id="label594" parent="edge99" vertex="1" connectable="0" value="1" style="edgeLabel;resizable=0;html=1;align=left;verticalAlign=top;strokeColor=default;">
      <mxGeometry x="3025" y="2408" as="geometry" />
    </mxCell>
    <mxCell id="label598" parent="edge99" vertex="1" connectable="0" value="1" style="edgeLabel;resizable=0;html=1;align=left;verticalAlign=top;strokeColor=default;">
      <mxGeometry x="2461" y="2300" as="geometry" />
    </mxCell>
    <mxCell id="label599" parent="edge99" vertex="1" connectable="0" value="formMapper" style="edgeLabel;resizable=0;html=1;align=left;verticalAlign=top;strokeColor=default;">
      <mxGeometry x="2472" y="2300" as="geometry" />
    </mxCell>
    <mxCell id="edge79" edge="1" value="" parent="1" source="node49" target="node25" style="html=1;rounded=1;edgeStyle=orthogonalEdgeStyle;dashed=1;startArrow=none;endArrow=openThin;endSize=12;strokeColor=#595959;exitX=0.250;exitY=0.000;exitDx=0;exitDy=0;entryX=0.500;entryY=1.000;entryDx=0;entryDy=0;">
      <mxGeometry width="50" height="50" relative="1" as="geometry">
        <Array as="points">
          <mxPoint x="2763" y="2418" />
          <mxPoint x="2241" y="2418" />
          <mxPoint x="2241" y="1256" />
          <mxPoint x="4201" y="1256" />
          <mxPoint x="4201" y="1094" />
          <mxPoint x="5583" y="1094" />
        </Array>
      </mxGeometry>
    </mxCell>
    <mxCell id="edge11" edge="1" value="" parent="1" source="node49" target="node16" style="html=1;rounded=1;edgeStyle=orthogonalEdgeStyle;dashed=0;startArrow=diamondThinstartSize=12;endArrow=openThin;endSize=12;strokeColor=#595959;exitX=0.750;exitY=0.000;exitDx=0;exitDy=0;entryX=0.500;entryY=1.000;entryDx=0;entryDy=0;">
      <mxGeometry width="50" height="50" relative="1" as="geometry">
        <Array as="points">
          <mxPoint x="2997" y="2478" />
          <mxPoint x="3947" y="2478" />
        </Array>
      </mxGeometry>
    </mxCell>
    <mxCell id="label66" parent="edge11" vertex="1" connectable="0" value="1" style="edgeLabel;resizable=0;html=1;align=left;verticalAlign=top;strokeColor=default;">
      <mxGeometry x="2992" y="2458" as="geometry" />
    </mxCell>
    <mxCell id="label70" parent="edge11" vertex="1" connectable="0" value="1" style="edgeLabel;resizable=0;html=1;align=left;verticalAlign=top;strokeColor=default;">
      <mxGeometry x="3936" y="2327" as="geometry" />
    </mxCell>
    <mxCell id="label71" parent="edge11" vertex="1" connectable="0" value="formQuestionRepository" style="edgeLabel;resizable=0;html=1;align=left;verticalAlign=top;strokeColor=default;">
      <mxGeometry x="3947" y="2327" as="geometry" />
    </mxCell>
    <mxCell id="edge64" edge="1" value="" parent="1" source="node49" target="node30" style="html=1;rounded=1;edgeStyle=orthogonalEdgeStyle;dashed=0;startArrow=diamondThinstartSize=12;endArrow=openThin;endSize=12;strokeColor=#595959;exitX=0.750;exitY=0.000;exitDx=0;exitDy=0;entryX=0.500;entryY=1.000;entryDx=0;entryDy=0;">
      <mxGeometry width="50" height="50" relative="1" as="geometry">
        <Array as="points">
          <mxPoint x="2997" y="2418" />
          <mxPoint x="3108" y="2418" />
          <mxPoint x="3108" y="2300" />
          <mxPoint x="4347" y="2300" />
        </Array>
      </mxGeometry>
    </mxCell>
    <mxCell id="label384" parent="edge64" vertex="1" connectable="0" value="1" style="edgeLabel;resizable=0;html=1;align=left;verticalAlign=top;strokeColor=default;">
      <mxGeometry x="3047" y="2398" as="geometry" />
    </mxCell>
    <mxCell id="label388" parent="edge64" vertex="1" connectable="0" value="1" style="edgeLabel;resizable=0;html=1;align=left;verticalAlign=top;strokeColor=default;">
      <mxGeometry x="4296" y="2279" as="geometry" />
    </mxCell>
    <mxCell id="label389" parent="edge64" vertex="1" connectable="0" value="formRepository" style="edgeLabel;resizable=0;html=1;align=left;verticalAlign=top;strokeColor=default;">
      <mxGeometry x="4303" y="2300" as="geometry" />
    </mxCell>
    <mxCell id="edge42" edge="1" value="" parent="1" source="node49" target="node17" style="html=1;rounded=1;edgeStyle=orthogonalEdgeStyle;dashed=1;startArrow=none;endArrow=openThin;endSize=12;strokeColor=#595959;exitX=0.250;exitY=0.000;exitDx=0;exitDy=0;entryX=0.875;entryY=1.000;entryDx=0;entryDy=0;">
      <mxGeometry width="50" height="50" relative="1" as="geometry">
        <Array as="points">
          <mxPoint x="2763" y="2418" />
          <mxPoint x="1824" y="2418" />
          <mxPoint x="1824" y="1164" />
          <mxPoint x="-389" y="1164" />
          <mxPoint x="-389" y="1134" />
          <mxPoint x="5363" y="1134" />
        </Array>
      </mxGeometry>
    </mxCell>
    <mxCell id="edge97" edge="1" value="" parent="1" source="node49" target="node20" style="html=1;rounded=1;edgeStyle=orthogonalEdgeStyle;dashed=1;startArrow=none;endArrow=openThin;endSize=12;strokeColor=#595959;exitX=0.250;exitY=0.000;exitDx=0;exitDy=0;entryX=0.300;entryY=1.000;entryDx=0;entryDy=0;">
      <mxGeometry width="50" height="50" relative="1" as="geometry">
        <Array as="points">
          <mxPoint x="2763" y="2418" />
          <mxPoint x="108" y="2418" />
          <mxPoint x="108" y="2016" />
          <mxPoint x="-174" y="2016" />
        </Array>
      </mxGeometry>
    </mxCell>
    <mxCell id="edge14" edge="1" value="" parent="1" source="node49" target="node31" style="html=1;rounded=1;edgeStyle=orthogonalEdgeStyle;dashed=0;startArrow=diamondThinstartSize=12;endArrow=openThin;endSize=12;strokeColor=#595959;exitX=0.750;exitY=0.000;exitDx=0;exitDy=0;entryX=0.375;entryY=1.000;entryDx=0;entryDy=0;">
      <mxGeometry width="50" height="50" relative="1" as="geometry">
        <Array as="points">
          <mxPoint x="2997" y="2320" />
          <mxPoint x="148" y="2320" />
          <mxPoint x="148" y="1939" />
          <mxPoint x="1804" y="1939" />
          <mxPoint x="1804" y="1246" />
          <mxPoint x="994" y="1246" />
        </Array>
      </mxGeometry>
    </mxCell>
    <mxCell id="label84" parent="edge14" vertex="1" connectable="0" value="1" style="edgeLabel;resizable=0;html=1;align=left;verticalAlign=top;strokeColor=default;">
      <mxGeometry x="2986" y="2394" as="geometry" />
    </mxCell>
    <mxCell id="label88" parent="edge14" vertex="1" connectable="0" value="1" style="edgeLabel;resizable=0;html=1;align=left;verticalAlign=top;strokeColor=default;">
      <mxGeometry x="983" y="944" as="geometry" />
    </mxCell>
    <mxCell id="label89" parent="edge14" vertex="1" connectable="0" value="questionService" style="edgeLabel;resizable=0;html=1;align=left;verticalAlign=top;strokeColor=default;">
      <mxGeometry x="994" y="944" as="geometry" />
    </mxCell>
    <mxCell id="edge62" edge="1" value="" parent="1" source="node49" target="node22" style="html=1;rounded=1;edgeStyle=orthogonalEdgeStyle;dashed=0;startArrow=diamondThinstartSize=12;endArrow=openThin;endSize=12;strokeColor=#595959;exitX=0.750;exitY=0.000;exitDx=0;exitDy=0;entryX=0.250;entryY=1.000;entryDx=0;entryDy=0;">
      <mxGeometry width="50" height="50" relative="1" as="geometry">
        <Array as="points">
          <mxPoint x="2997" y="2320" />
          <mxPoint x="5317" y="2320" />
          <mxPoint x="5317" y="2212" />
          <mxPoint x="5432" y="2212" />
        </Array>
      </mxGeometry>
    </mxCell>
    <mxCell id="label372" parent="edge62" vertex="1" connectable="0" value="1" style="edgeLabel;resizable=0;html=1;align=left;verticalAlign=top;strokeColor=default;">
      <mxGeometry x="2986" y="2436" as="geometry" />
    </mxCell>
    <mxCell id="label376" parent="edge62" vertex="1" connectable="0" value="1" style="edgeLabel;resizable=0;html=1;align=left;verticalAlign=top;strokeColor=default;">
      <mxGeometry x="5421" y="2007" as="geometry" />
    </mxCell>
    <mxCell id="label377" parent="edge62" vertex="1" connectable="0" value="scaleMapper" style="edgeLabel;resizable=0;html=1;align=left;verticalAlign=top;strokeColor=default;">
      <mxGeometry x="5432" y="2045" as="geometry" />
    </mxCell>
    <mxCell id="edge47" edge="1" value="" parent="1" source="node49" target="node9" style="html=1;rounded=1;edgeStyle=orthogonalEdgeStyle;dashed=0;startArrow=diamondThinstartSize=12;endArrow=openThin;endSize=12;strokeColor=#595959;exitX=0.750;exitY=0.000;exitDx=0;exitDy=0;entryX=0.250;entryY=1.000;entryDx=0;entryDy=0;">
      <mxGeometry width="50" height="50" relative="1" as="geometry">
        <Array as="points" />
      </mxGeometry>
    </mxCell>
    <mxCell id="label282" parent="edge47" vertex="1" connectable="0" value="1" style="edgeLabel;resizable=0;html=1;align=left;verticalAlign=top;strokeColor=default;">
      <mxGeometry x="2946" y="2463" as="geometry" />
    </mxCell>
    <mxCell id="label286" parent="edge47" vertex="1" connectable="0" value="1" style="edgeLabel;resizable=0;html=1;align=left;verticalAlign=top;strokeColor=default;">
      <mxGeometry x="2986" y="872" as="geometry" />
    </mxCell>
    <mxCell id="label287" parent="edge47" vertex="1" connectable="0" value="variantService" style="edgeLabel;resizable=0;html=1;align=left;verticalAlign=top;strokeColor=default;">
      <mxGeometry x="2997" y="872" as="geometry" />
    </mxCell>
    <mxCell id="edge8" edge="1" value="" parent="1" source="node38" target="node36" style="html=1;rounded=1;edgeStyle=orthogonalEdgeStyle;dashed=1;startArrow=none;endArrow=openThin;endSize=12;strokeColor=#595959;exitX=0.750;exitY=0.000;exitDx=0;exitDy=0;entryX=0.167;entryY=1.000;entryDx=0;entryDy=0;">
      <mxGeometry width="50" height="50" relative="1" as="geometry">
        <Array as="points">
          <mxPoint x="4201" y="2478" />
          <mxPoint x="4512" y="2478" />
          <mxPoint x="4512" y="1614" />
          <mxPoint x="4101" y="1614" />
          <mxPoint x="4101" y="1266" />
          <mxPoint x="4141" y="1266" />
          <mxPoint x="4141" y="1144" />
          <mxPoint x="5817" y="1144" />
        </Array>
      </mxGeometry>
    </mxCell>
    <mxCell id="edge92" edge="1" value="" parent="1" source="node38" target="node1" style="html=1;rounded=1;edgeStyle=orthogonalEdgeStyle;dashed=1;startArrow=none;endArrow=openThin;endSize=12;strokeColor=#595959;exitX=0.750;exitY=0.000;exitDx=0;exitDy=0;entryX=0.750;entryY=1.000;entryDx=0;entryDy=0;">
      <mxGeometry width="50" height="50" relative="1" as="geometry">
        <Array as="points">
          <mxPoint x="4201" y="2478" />
          <mxPoint x="4532" y="2478" />
          <mxPoint x="4532" y="2145" />
          <mxPoint x="188" y="2145" />
          <mxPoint x="188" y="1949" />
          <mxPoint x="208" y="1949" />
        </Array>
      </mxGeometry>
    </mxCell>
    <mxCell id="edge75" edge="1" value="" parent="1" source="node38" target="node0" style="html=1;rounded=1;edgeStyle=orthogonalEdgeStyle;dashed=0;startArrow=diamondThinstartSize=12;endArrow=openThin;endSize=12;strokeColor=#595959;exitX=0.250;exitY=0.000;exitDx=0;exitDy=0;entryX=0.750;entryY=1.000;entryDx=0;entryDy=0;">
      <mxGeometry width="50" height="50" relative="1" as="geometry">
        <Array as="points">
          <mxPoint x="3967" y="2458" />
          <mxPoint x="3129" y="2458" />
          <mxPoint x="3129" y="2310" />
          <mxPoint x="2472" y="2310" />
        </Array>
      </mxGeometry>
    </mxCell>
    <mxCell id="label450" parent="edge75" vertex="1" connectable="0" value="1" style="edgeLabel;resizable=0;html=1;align=left;verticalAlign=top;strokeColor=default;">
      <mxGeometry x="3956" y="2463" as="geometry" />
    </mxCell>
    <mxCell id="label454" parent="edge75" vertex="1" connectable="0" value="1" style="edgeLabel;resizable=0;html=1;align=left;verticalAlign=top;strokeColor=default;">
      <mxGeometry x="2631" y="2290" as="geometry" />
    </mxCell>
    <mxCell id="label455" parent="edge75" vertex="1" connectable="0" value="formMapper" style="edgeLabel;resizable=0;html=1;align=left;verticalAlign=top;strokeColor=default;">
      <mxGeometry x="2472" y="2278" as="geometry" />
    </mxCell>
    <mxCell id="edge109" edge="1" value="" parent="1" source="node38" target="node25" style="html=1;rounded=1;edgeStyle=orthogonalEdgeStyle;dashed=1;startArrow=none;endArrow=openThin;endSize=12;strokeColor=#595959;exitX=0.750;exitY=0.000;exitDx=0;exitDy=0;entryX=0.500;entryY=1.000;entryDx=0;entryDy=0;">
      <mxGeometry width="50" height="50" relative="1" as="geometry">
        <Array as="points">
          <mxPoint x="4201" y="1094" />
          <mxPoint x="5583" y="1094" />
        </Array>
      </mxGeometry>
    </mxCell>
    <mxCell id="edge63" edge="1" value="" parent="1" source="node38" target="node16" style="html=1;rounded=1;edgeStyle=orthogonalEdgeStyle;dashed=0;startArrow=diamondThinstartSize=12;endArrow=openThin;endSize=12;strokeColor=#595959;exitX=0.250;exitY=0.000;exitDx=0;exitDy=0;entryX=0.500;entryY=1.000;entryDx=0;entryDy=0;">
      <mxGeometry width="50" height="50" relative="1" as="geometry">
        <Array as="points">
          <mxPoint x="3967" y="2438" />
          <mxPoint x="3947" y="2438" />
        </Array>
      </mxGeometry>
    </mxCell>
    <mxCell id="label378" parent="edge63" vertex="1" connectable="0" value="1" style="edgeLabel;resizable=0;html=1;align=left;verticalAlign=top;strokeColor=default;">
      <mxGeometry x="3936" y="2428" as="geometry" />
    </mxCell>
    <mxCell id="label382" parent="edge63" vertex="1" connectable="0" value="1" style="edgeLabel;resizable=0;html=1;align=left;verticalAlign=top;strokeColor=default;">
      <mxGeometry x="3936" y="2295" as="geometry" />
    </mxCell>
    <mxCell id="label383" parent="edge63" vertex="1" connectable="0" value="formQuestionRepository" style="edgeLabel;resizable=0;html=1;align=left;verticalAlign=top;strokeColor=default;">
      <mxGeometry x="3947" y="2354" as="geometry" />
    </mxCell>
    <mxCell id="edge6" edge="1" value="" parent="1" source="node38" target="node30" style="html=1;rounded=1;edgeStyle=orthogonalEdgeStyle;dashed=0;startArrow=diamondThinstartSize=12;endArrow=openThin;endSize=12;strokeColor=#595959;exitX=0.250;exitY=0.000;exitDx=0;exitDy=0;entryX=0.500;entryY=1.000;entryDx=0;entryDy=0;">
      <mxGeometry width="50" height="50" relative="1" as="geometry">
        <Array as="points">
          <mxPoint x="3967" y="2468" />
          <mxPoint x="3108" y="2468" />
          <mxPoint x="3108" y="2300" />
          <mxPoint x="4347" y="2300" />
        </Array>
      </mxGeometry>
    </mxCell>
    <mxCell id="label36" parent="edge6" vertex="1" connectable="0" value="1" style="edgeLabel;resizable=0;html=1;align=left;verticalAlign=top;strokeColor=default;">
      <mxGeometry x="3747" y="2448" as="geometry" />
    </mxCell>
    <mxCell id="label40" parent="edge6" vertex="1" connectable="0" value="1" style="edgeLabel;resizable=0;html=1;align=left;verticalAlign=top;strokeColor=default;">
      <mxGeometry x="4336" y="2279" as="geometry" />
    </mxCell>
    <mxCell id="label41" parent="edge6" vertex="1" connectable="0" value="formRepository" style="edgeLabel;resizable=0;html=1;align=left;verticalAlign=top;strokeColor=default;">
      <mxGeometry x="4347" y="2279" as="geometry" />
    </mxCell>
    <mxCell id="edge71" edge="1" value="" parent="1" source="node38" target="node17" style="html=1;rounded=1;edgeStyle=orthogonalEdgeStyle;dashed=1;startArrow=none;endArrow=openThin;endSize=12;strokeColor=#595959;exitX=0.750;exitY=0.000;exitDx=0;exitDy=0;entryX=0.875;entryY=1.000;entryDx=0;entryDy=0;">
      <mxGeometry width="50" height="50" relative="1" as="geometry">
        <Array as="points">
          <mxPoint x="4201" y="2478" />
          <mxPoint x="4492" y="2478" />
          <mxPoint x="4492" y="1164" />
          <mxPoint x="-389" y="1164" />
          <mxPoint x="-389" y="1134" />
          <mxPoint x="5363" y="1134" />
        </Array>
      </mxGeometry>
    </mxCell>
    <mxCell id="edge5" edge="1" value="" parent="1" source="node38" target="node22" style="html=1;rounded=1;edgeStyle=orthogonalEdgeStyle;dashed=0;startArrow=diamondThinstartSize=12;endArrow=openThin;endSize=12;strokeColor=#595959;exitX=0.250;exitY=0.000;exitDx=0;exitDy=0;entryX=0.250;entryY=1.000;entryDx=0;entryDy=0;">
      <mxGeometry width="50" height="50" relative="1" as="geometry">
        <Array as="points">
          <mxPoint x="3967" y="2428" />
          <mxPoint x="5492" y="2428" />
          <mxPoint x="5492" y="2212" />
          <mxPoint x="5432" y="2212" />
        </Array>
      </mxGeometry>
    </mxCell>
    <mxCell id="label30" parent="edge5" vertex="1" connectable="0" value="1" style="edgeLabel;resizable=0;html=1;align=left;verticalAlign=top;strokeColor=default;">
      <mxGeometry x="4343" y="2408" as="geometry" />
    </mxCell>
    <mxCell id="label34" parent="edge5" vertex="1" connectable="0" value="1" style="edgeLabel;resizable=0;html=1;align=left;verticalAlign=top;strokeColor=default;">
      <mxGeometry x="5381" y="2045" as="geometry" />
    </mxCell>
    <mxCell id="label35" parent="edge5" vertex="1" connectable="0" value="scaleMapper" style="edgeLabel;resizable=0;html=1;align=left;verticalAlign=top;strokeColor=default;">
      <mxGeometry x="5472" y="2045" as="geometry" />
    </mxCell>
    <mxCell id="edge59" edge="1" value="" parent="1" source="node35" target="node50" style="html=1;rounded=1;edgeStyle=orthogonalEdgeStyle;dashed=0;startArrow=diamondThinstartSize=12;endArrow=openThin;endSize=12;strokeColor=#595959;exitX=0.250;exitY=0.000;exitDx=0;exitDy=0;entryX=0.500;entryY=1.000;entryDx=0;entryDy=0;">
      <mxGeometry width="50" height="50" relative="1" as="geometry">
        <Array as="points" />
      </mxGeometry>
    </mxCell>
    <mxCell id="label354" parent="edge59" vertex="1" connectable="0" value="1" style="edgeLabel;resizable=0;html=1;align=left;verticalAlign=top;strokeColor=default;">
      <mxGeometry x="5999" y="1992" as="geometry" />
    </mxCell>
    <mxCell id="label358" parent="edge59" vertex="1" connectable="0" value="1" style="edgeLabel;resizable=0;html=1;align=left;verticalAlign=top;strokeColor=default;">
      <mxGeometry x="5999" y="1870" as="geometry" />
    </mxCell>
    <mxCell id="label359" parent="edge59" vertex="1" connectable="0" value="scale" style="edgeLabel;resizable=0;html=1;align=left;verticalAlign=top;strokeColor=default;">
      <mxGeometry x="6010" y="1870" as="geometry" />
    </mxCell>
    <mxCell id="edge23" edge="1" value="" parent="1" source="node7" target="node32" style="html=1;rounded=1;edgeStyle=orthogonalEdgeStyle;dashed=0;startArrow=diamondThinstartSize=12;endArrow=openThin;endSize=12;strokeColor=#595959;exitX=0.500;exitY=0.000;exitDx=0;exitDy=0;entryX=0.500;entryY=1.000;entryDx=0;entryDy=0;">
      <mxGeometry width="50" height="50" relative="1" as="geometry">
        <Array as="points" />
      </mxGeometry>
    </mxCell>
    <mxCell id="label138" parent="edge23" vertex="1" connectable="0" value="1" style="edgeLabel;resizable=0;html=1;align=left;verticalAlign=top;strokeColor=default;">
      <mxGeometry x="6436" y="3307" as="geometry" />
    </mxCell>
    <mxCell id="label142" parent="edge23" vertex="1" connectable="0" value="1" style="edgeLabel;resizable=0;html=1;align=left;verticalAlign=top;strokeColor=default;">
      <mxGeometry x="6436" y="2761" as="geometry" />
    </mxCell>
    <mxCell id="label143" parent="edge23" vertex="1" connectable="0" value="interpretationService" style="edgeLabel;resizable=0;html=1;align=left;verticalAlign=top;strokeColor=default;">
      <mxGeometry x="6447" y="2761" as="geometry" />
    </mxCell>
    <mxCell id="edge85" edge="1" value="" parent="1" source="node44" target="node35" style="html=1;rounded=1;edgeStyle=orthogonalEdgeStyle;dashed=1;startArrow=none;endArrow=openThin;endSize=12;strokeColor=#595959;exitX=0.500;exitY=0.000;exitDx=0;exitDy=0;entryX=0.500;entryY=1.000;entryDx=0;entryDy=0;">
      <mxGeometry width="50" height="50" relative="1" as="geometry">
        <Array as="points" />
      </mxGeometry>
    </mxCell>
    <mxCell id="edge39" edge="1" value="" parent="1" source="node32" target="node35" style="html=1;rounded=1;edgeStyle=orthogonalEdgeStyle;dashed=1;startArrow=none;endArrow=openThin;endSize=12;strokeColor=#595959;exitX=0.500;exitY=0.000;exitDx=0;exitDy=0;entryX=0.500;entryY=1.000;entryDx=0;entryDy=0;">
      <mxGeometry width="50" height="50" relative="1" as="geometry">
        <Array as="points">
          <mxPoint x="6447" y="2600" />
          <mxPoint x="6069" y="2600" />
        </Array>
      </mxGeometry>
    </mxCell>
    <mxCell id="edge18" edge="1" value="" parent="1" source="node32" target="node44" style="html=1;rounded=1;edgeStyle=orthogonalEdgeStyle;dashed=0;startArrow=diamondThinstartSize=12;endArrow=openThin;endSize=12;strokeColor=#595959;exitX=0.000;exitY=0.500;exitDx=0;exitDy=0;entryX=1.000;entryY=0.500;entryDx=0;entryDy=0;">
      <mxGeometry width="50" height="50" relative="1" as="geometry">
        <Array as="points" />
      </mxGeometry>
    </mxCell>
    <mxCell id="label108" parent="edge18" vertex="1" connectable="0" value="1" style="edgeLabel;resizable=0;html=1;align=left;verticalAlign=top;strokeColor=default;">
      <mxGeometry x="6250" y="2680" as="geometry" />
    </mxCell>
    <mxCell id="label112" parent="edge18" vertex="1" connectable="0" value="1" style="edgeLabel;resizable=0;html=1;align=left;verticalAlign=top;strokeColor=default;">
      <mxGeometry x="6225" y="2680" as="geometry" />
    </mxCell>
    <mxCell id="label113" parent="edge18" vertex="1" connectable="0" value="interpretationRepository" style="edgeLabel;resizable=0;html=1;align=left;verticalAlign=top;strokeColor=default;">
      <mxGeometry x="6151" y="2740" as="geometry" />
    </mxCell>
    <mxCell id="edge58" edge="1" value="" parent="1" source="node10" target="node11" style="html=1;rounded=1;edgeStyle=orthogonalEdgeStyle;dashed=0;startArrow=diamondThinstartSize=12;endArrow=openThin;endSize=12;strokeColor=#595959;exitX=0.500;exitY=0.000;exitDx=0;exitDy=0;entryX=0.500;entryY=1.000;entryDx=0;entryDy=0;">
      <mxGeometry width="50" height="50" relative="1" as="geometry">
        <Array as="points">
          <mxPoint x="4813" y="954" />
          <mxPoint x="4871" y="954" />
        </Array>
      </mxGeometry>
    </mxCell>
    <mxCell id="label348" parent="edge58" vertex="1" connectable="0" value="1" style="edgeLabel;resizable=0;html=1;align=left;verticalAlign=top;strokeColor=default;">
      <mxGeometry x="4802" y="1507" as="geometry" />
    </mxCell>
    <mxCell id="label352" parent="edge58" vertex="1" connectable="0" value="1" style="edgeLabel;resizable=0;html=1;align=left;verticalAlign=top;strokeColor=default;">
      <mxGeometry x="4802" y="944" as="geometry" />
    </mxCell>
    <mxCell id="label353" parent="edge58" vertex="1" connectable="0" value="jwtUtils" style="edgeLabel;resizable=0;html=1;align=left;verticalAlign=top;strokeColor=default;">
      <mxGeometry x="4849" y="954" as="geometry" />
    </mxCell>
    <mxCell id="edge83" edge="1" value="" parent="1" source="node10" target="node5" style="html=1;rounded=1;edgeStyle=orthogonalEdgeStyle;dashed=0;startArrow=diamondThinstartSize=12;endArrow=openThin;endSize=12;strokeColor=#595959;exitX=0.500;exitY=0.000;exitDx=0;exitDy=0;entryX=0.500;entryY=1.000;entryDx=0;entryDy=0;">
      <mxGeometry width="50" height="50" relative="1" as="geometry">
        <Array as="points">
          <mxPoint x="4813" y="1286" />
          <mxPoint x="4834" y="1286" />
          <mxPoint x="4834" y="1246" />
          <mxPoint x="4517" y="1246" />
        </Array>
      </mxGeometry>
    </mxCell>
    <mxCell id="label498" parent="edge83" vertex="1" connectable="0" value="1" style="edgeLabel;resizable=0;html=1;align=left;verticalAlign=top;strokeColor=default;">
      <mxGeometry x="4802" y="1461" as="geometry" />
    </mxCell>
    <mxCell id="label502" parent="edge83" vertex="1" connectable="0" value="1" style="edgeLabel;resizable=0;html=1;align=left;verticalAlign=top;strokeColor=default;">
      <mxGeometry x="4506" y="848" as="geometry" />
    </mxCell>
    <mxCell id="label503" parent="edge83" vertex="1" connectable="0" value="userService" style="edgeLabel;resizable=0;html=1;align=left;verticalAlign=top;strokeColor=default;">
      <mxGeometry x="4517" y="848" as="geometry" />
    </mxCell>
    <mxCell id="edge52" edge="1" value="" parent="1" source="node17" target="node25" style="html=1;rounded=1;edgeStyle=orthogonalEdgeStyle;dashed=0;startArrow=diamondThinstartSize=12;endArrow=openThin;endSize=12;strokeColor=#595959;exitX=1.000;exitY=0.750;exitDx=0;exitDy=0;entryX=0.000;entryY=0.750;entryDx=0;entryDy=0;">
      <mxGeometry width="50" height="50" relative="1" as="geometry">
        <Array as="points">
          <mxPoint x="5429" y="923" />
          <mxPoint x="5429" y="875" />
        </Array>
      </mxGeometry>
    </mxCell>
    <mxCell id="label312" parent="edge52" vertex="1" connectable="0" value="1" style="edgeLabel;resizable=0;html=1;align=left;verticalAlign=top;strokeColor=default;">
      <mxGeometry x="5411" y="903" as="geometry" />
    </mxCell>
    <mxCell id="label316" parent="edge52" vertex="1" connectable="0" value="*" style="edgeLabel;resizable=0;html=1;align=left;verticalAlign=top;strokeColor=default;">
      <mxGeometry x="5442" y="855" as="geometry" />
    </mxCell>
    <mxCell id="label317" parent="edge52" vertex="1" connectable="0" value="formQuestions" style="edgeLabel;resizable=0;html=1;align=left;verticalAlign=top;strokeColor=default;">
      <mxGeometry x="5386" y="875" as="geometry" />
    </mxCell>
    <mxCell id="edge74" edge="1" value="" parent="1" source="node17" target="node47" style="html=1;rounded=1;edgeStyle=orthogonalEdgeStyle;dashed=0;startArrow=diamondThinstartSize=12;endArrow=openThin;endSize=12;strokeColor=#595959;exitX=0.900;exitY=0.000;exitDx=0;exitDy=0;entryX=0.833;entryY=1.000;entryDx=0;entryDy=0;">
      <mxGeometry width="50" height="50" relative="1" as="geometry">
        <Array as="points" />
      </mxGeometry>
    </mxCell>
    <mxCell id="label444" parent="edge74" vertex="1" connectable="0" value="1" style="edgeLabel;resizable=0;html=1;align=left;verticalAlign=top;strokeColor=default;">
      <mxGeometry x="5360" y="457" as="geometry" />
    </mxCell>
    <mxCell id="label448" parent="edge74" vertex="1" connectable="0" value="*" style="edgeLabel;resizable=0;html=1;align=left;verticalAlign=top;strokeColor=default;">
      <mxGeometry x="5362" y="384" as="geometry" />
    </mxCell>
    <mxCell id="label449" parent="edge74" vertex="1" connectable="0" value="variants" style="edgeLabel;resizable=0;html=1;align=left;verticalAlign=top;strokeColor=default;">
      <mxGeometry x="5371" y="384" as="geometry" />
    </mxCell>
    <mxCell id="edge36" edge="1" value="" parent="1" source="node20" target="node18" style="html=1;rounded=1;edgeStyle=orthogonalEdgeStyle;dashed=0;startArrow=diamondThinstartSize=12;endArrow=openThin;endSize=12;strokeColor=#595959;exitX=0.500;exitY=0.000;exitDx=0;exitDy=0;entryX=0.750;entryY=1.000;entryDx=0;entryDy=0;">
      <mxGeometry width="50" height="50" relative="1" as="geometry">
        <Array as="points">
          <mxPoint x="-120" y="565" />
          <mxPoint x="1295" y="565" />
          <mxPoint x="1295" y="455" />
          <mxPoint x="259" y="455" />
        </Array>
      </mxGeometry>
    </mxCell>
    <mxCell id="label216" parent="edge36" vertex="1" connectable="0" value="1" style="edgeLabel;resizable=0;html=1;align=left;verticalAlign=top;strokeColor=default;">
      <mxGeometry x="-131" y="565" as="geometry" />
    </mxCell>
    <mxCell id="label220" parent="edge36" vertex="1" connectable="0" value="1" style="edgeLabel;resizable=0;html=1;align=left;verticalAlign=top;strokeColor=default;">
      <mxGeometry x="248" y="291" as="geometry" />
    </mxCell>
    <mxCell id="label221" parent="edge36" vertex="1" connectable="0" value="type" style="edgeLabel;resizable=0;html=1;align=left;verticalAlign=top;strokeColor=default;">
      <mxGeometry x="259" y="291" as="geometry" />
    </mxCell>
    <mxCell id="edge22" edge="1" value="" parent="1" source="node20" target="node52" style="html=1;rounded=1;edgeStyle=orthogonalEdgeStyle;dashed=0;startArrow=diamondThinstartSize=12;endArrow=openThin;endSize=12;strokeColor=#595959;exitX=0.500;exitY=0.000;exitDx=0;exitDy=0;entryX=0.250;entryY=1.000;entryDx=0;entryDy=0;">
      <mxGeometry width="50" height="50" relative="1" as="geometry">
        <Array as="points">
          <mxPoint x="-120" y="565" />
          <mxPoint x="1295" y="565" />
        </Array>
      </mxGeometry>
    </mxCell>
    <mxCell id="label132" parent="edge22" vertex="1" connectable="0" value="1" style="edgeLabel;resizable=0;html=1;align=left;verticalAlign=top;strokeColor=default;">
      <mxGeometry x="-126" y="545" as="geometry" />
    </mxCell>
    <mxCell id="label136" parent="edge22" vertex="1" connectable="0" value="*" style="edgeLabel;resizable=0;html=1;align=left;verticalAlign=top;strokeColor=default;">
      <mxGeometry x="1286" y="315" as="geometry" />
    </mxCell>
    <mxCell id="label137" parent="edge22" vertex="1" connectable="0" value="variants" style="edgeLabel;resizable=0;html=1;align=left;verticalAlign=top;strokeColor=default;">
      <mxGeometry x="1295" y="315" as="geometry" />
    </mxCell>
    <mxCell id="edge38" edge="1" value="" parent="1" source="node6" target="node17" style="html=1;rounded=1;edgeStyle=orthogonalEdgeStyle;dashed=1;startArrow=none;endArrow=openThin;endSize=12;strokeColor=#595959;exitX=0.500;exitY=0.000;exitDx=0;exitDy=0;entryX=0.300;entryY=0.000;entryDx=0;entryDy=0;">
      <mxGeometry width="50" height="50" relative="1" as="geometry">
        <Array as="points">
          <mxPoint x="639" y="475" />
          <mxPoint x="5171" y="475" />
        </Array>
      </mxGeometry>
    </mxCell>
    <mxCell id="edge111" edge="1" value="" parent="1" source="node6" target="node20" style="html=1;rounded=1;edgeStyle=orthogonalEdgeStyle;dashed=1;startArrow=none;endArrow=openThin;endSize=12;strokeColor=#595959;exitX=0.167;exitY=1.000;exitDx=0;exitDy=0;entryX=0.900;entryY=1.000;entryDx=0;entryDy=0;">
      <mxGeometry width="50" height="50" relative="1" as="geometry">
        <Array as="points">
          <mxPoint x="523" y="1014" />
          <mxPoint x="-12" y="1014" />
        </Array>
      </mxGeometry>
    </mxCell>
    <mxCell id="edge84" edge="1" value="" parent="1" source="node34" target="node17" style="html=1;rounded=1;edgeStyle=orthogonalEdgeStyle;dashed=1;startArrow=none;endArrow=openThin;endSize=12;strokeColor=#595959;exitX=0.500;exitY=0.000;exitDx=0;exitDy=0;entryX=0.500;entryY=0.000;entryDx=0;entryDy=0;">
      <mxGeometry width="50" height="50" relative="1" as="geometry">
        <Array as="points">
          <mxPoint x="240" y="465" />
          <mxPoint x="5238" y="465" />
        </Array>
      </mxGeometry>
    </mxCell>
    <mxCell id="edge80" edge="1" value="" parent="1" source="node34" target="node20" style="html=1;rounded=1;edgeStyle=orthogonalEdgeStyle;dashed=1;startArrow=none;endArrow=openThin;endSize=12;strokeColor=#595959;exitX=0.000;exitY=0.500;exitDx=0;exitDy=0;entryX=1.000;entryY=0.500;entryDx=0;entryDy=0;">
      <mxGeometry width="50" height="50" relative="1" as="geometry">
        <Array as="points" />
      </mxGeometry>
    </mxCell>
    <mxCell id="edge2" edge="1" value="" parent="1" source="node34" target="node6" style="html=1;rounded=1;edgeStyle=orthogonalEdgeStyle;dashed=1;startArrow=none;endArrow=block;endSize=12;strokeColor=#008200;exitX=1.000;exitY=0.500;exitDx=0;exitDy=0;entryX=0.000;entryY=0.500;entryDx=0;entryDy=0;">
      <mxGeometry width="50" height="50" relative="1" as="geometry">
        <Array as="points" />
      </mxGeometry>
    </mxCell>
    <mxCell id="edge78" edge="1" value="" parent="1" source="node34" target="node18" style="html=1;rounded=1;edgeStyle=orthogonalEdgeStyle;dashed=1;startArrow=none;endArrow=openThin;endSize=12;strokeColor=#595959;exitX=0.167;exitY=0.000;exitDx=0;exitDy=0;entryX=0.250;entryY=1.000;entryDx=0;entryDy=0;">
      <mxGeometry width="50" height="50" relative="1" as="geometry">
        <Array as="points" />
      </mxGeometry>
    </mxCell>
    <mxCell id="edge95" edge="1" value="" parent="1" source="node34" target="node2" style="html=1;rounded=1;edgeStyle=orthogonalEdgeStyle;dashed=0;startArrow=diamondThinstartSize=12;endArrow=openThin;endSize=12;strokeColor=#595959;exitX=0.833;exitY=0.000;exitDx=0;exitDy=0;entryX=0.125;entryY=0.000;entryDx=0;entryDy=0;">
      <mxGeometry width="50" height="50" relative="1" as="geometry">
        <Array as="points">
          <mxPoint x="356" y="555" />
          <mxPoint x="1652" y="555" />
        </Array>
      </mxGeometry>
    </mxCell>
    <mxCell id="label570" parent="edge95" vertex="1" connectable="0" value="1" style="edgeLabel;resizable=0;html=1;align=left;verticalAlign=top;strokeColor=default;">
      <mxGeometry x="345" y="659" as="geometry" />
    </mxCell>
    <mxCell id="label574" parent="edge95" vertex="1" connectable="0" value="1" style="edgeLabel;resizable=0;html=1;align=left;verticalAlign=top;strokeColor=default;">
      <mxGeometry x="1641" y="695" as="geometry" />
    </mxCell>
    <mxCell id="label575" parent="edge95" vertex="1" connectable="0" value="variantMapper" style="edgeLabel;resizable=0;html=1;align=left;verticalAlign=top;strokeColor=default;">
      <mxGeometry x="1652" y="695" as="geometry" />
    </mxCell>
    <mxCell id="edge50" edge="1" value="" parent="1" source="node8" target="node17" style="html=1;rounded=1;edgeStyle=orthogonalEdgeStyle;dashed=1;startArrow=none;endArrow=openThin;endSize=12;strokeColor=#595959;exitX=0.500;exitY=0.000;exitDx=0;exitDy=0;entryX=0.100;entryY=0.000;entryDx=0;entryDy=0;">
      <mxGeometry width="50" height="50" relative="1" as="geometry">
        <Array as="points">
          <mxPoint x="2097" y="495" />
          <mxPoint x="5105" y="495" />
        </Array>
      </mxGeometry>
    </mxCell>
    <mxCell id="edge24" edge="1" value="" parent="1" source="node31" target="node17" style="html=1;rounded=1;edgeStyle=orthogonalEdgeStyle;dashed=1;startArrow=none;endArrow=openThin;endSize=12;strokeColor=#595959;exitX=0.625;exitY=1.000;exitDx=0;exitDy=0;entryX=0.625;entryY=1.000;entryDx=0;entryDy=0;">
      <mxGeometry width="50" height="50" relative="1" as="geometry">
        <Array as="points">
          <mxPoint x="1082" y="1104" />
          <mxPoint x="5280" y="1104" />
        </Array>
      </mxGeometry>
    </mxCell>
    <mxCell id="edge19" edge="1" value="" parent="1" source="node31" target="node20" style="html=1;rounded=1;edgeStyle=orthogonalEdgeStyle;dashed=1;startArrow=none;endArrow=openThin;endSize=12;strokeColor=#595959;exitX=0.125;exitY=1.000;exitDx=0;exitDy=0;entryX=0.700;entryY=1.000;entryDx=0;entryDy=0;">
      <mxGeometry width="50" height="50" relative="1" as="geometry">
        <Array as="points">
          <mxPoint x="907" y="1024" />
          <mxPoint x="-66" y="1024" />
        </Array>
      </mxGeometry>
    </mxCell>
    <mxCell id="edge106" edge="1" value="" parent="1" source="node31" target="node6" style="html=1;rounded=1;edgeStyle=orthogonalEdgeStyle;dashed=0;startArrow=diamondThinstartSize=12;endArrow=openThin;endSize=12;strokeColor=#595959;exitX=0.000;exitY=0.500;exitDx=0;exitDy=0;entryX=1.000;entryY=0.500;entryDx=0;entryDy=0;">
      <mxGeometry width="50" height="50" relative="1" as="geometry">
        <Array as="points" />
      </mxGeometry>
    </mxCell>
    <mxCell id="label636" parent="edge106" vertex="1" connectable="0" value="1" style="edgeLabel;resizable=0;html=1;align=left;verticalAlign=top;strokeColor=default;">
      <mxGeometry x="845" y="767" as="geometry" />
    </mxCell>
    <mxCell id="label640" parent="edge106" vertex="1" connectable="0" value="1" style="edgeLabel;resizable=0;html=1;align=left;verticalAlign=top;strokeColor=default;">
      <mxGeometry x="820" y="767" as="geometry" />
    </mxCell>
    <mxCell id="label641" parent="edge106" vertex="1" connectable="0" value="questionMapper" style="edgeLabel;resizable=0;html=1;align=left;verticalAlign=top;strokeColor=default;">
      <mxGeometry x="817" y="787" as="geometry" />
    </mxCell>
    <mxCell id="edge51" edge="1" value="" parent="1" source="node31" target="node8" style="html=1;rounded=1;edgeStyle=orthogonalEdgeStyle;dashed=0;startArrow=diamondThinstartSize=12;endArrow=openThin;endSize=12;strokeColor=#595959;exitX=0.875;exitY=1.000;exitDx=0;exitDy=0;entryX=0.500;entryY=1.000;entryDx=0;entryDy=0;">
      <mxGeometry width="50" height="50" relative="1" as="geometry">
        <Array as="points">
          <mxPoint x="1169" y="949" />
          <mxPoint x="2097" y="949" />
        </Array>
      </mxGeometry>
    </mxCell>
    <mxCell id="label306" parent="edge51" vertex="1" connectable="0" value="1" style="edgeLabel;resizable=0;html=1;align=left;verticalAlign=top;strokeColor=default;">
      <mxGeometry x="1158" y="939" as="geometry" />
    </mxCell>
    <mxCell id="label310" parent="edge51" vertex="1" connectable="0" value="1" style="edgeLabel;resizable=0;html=1;align=left;verticalAlign=top;strokeColor=default;">
      <mxGeometry x="2086" y="836" as="geometry" />
    </mxCell>
    <mxCell id="label311" parent="edge51" vertex="1" connectable="0" value="questionRepository" style="edgeLabel;resizable=0;html=1;align=left;verticalAlign=top;strokeColor=default;">
      <mxGeometry x="2097" y="850" as="geometry" />
    </mxCell>
    <mxCell id="edge56" edge="1" value="" parent="1" source="node13" target="node17" style="html=1;rounded=1;edgeStyle=orthogonalEdgeStyle;dashed=1;startArrow=none;endArrow=openThin;endSize=12;strokeColor=#595959;exitX=0.833;exitY=1.000;exitDx=0;exitDy=0;entryX=0.375;entryY=1.000;entryDx=0;entryDy=0;">
      <mxGeometry width="50" height="50" relative="1" as="geometry">
        <Array as="points">
          <mxPoint x="2573" y="1084" />
          <mxPoint x="5196" y="1084" />
        </Array>
      </mxGeometry>
    </mxCell>
    <mxCell id="edge49" edge="1" value="" parent="1" source="node13" target="node20" style="html=1;rounded=1;edgeStyle=orthogonalEdgeStyle;dashed=1;startArrow=none;endArrow=openThin;endSize=12;strokeColor=#595959;exitX=0.500;exitY=1.000;exitDx=0;exitDy=0;entryX=0.500;entryY=1.000;entryDx=0;entryDy=0;">
      <mxGeometry width="50" height="50" relative="1" as="geometry">
        <Array as="points">
          <mxPoint x="2457" y="1114" />
          <mxPoint x="-120" y="1114" />
        </Array>
      </mxGeometry>
    </mxCell>
    <mxCell id="edge31" edge="1" value="" parent="1" source="node13" target="node6" style="html=1;rounded=1;edgeStyle=orthogonalEdgeStyle;dashed=0;startArrow=diamondThinstartSize=12;endArrow=openThin;endSize=12;strokeColor=#595959;exitX=0.167;exitY=1.000;exitDx=0;exitDy=0;entryX=0.833;entryY=1.000;entryDx=0;entryDy=0;">
      <mxGeometry width="50" height="50" relative="1" as="geometry">
        <Array as="points">
          <mxPoint x="2341" y="1034" />
          <mxPoint x="755" y="1034" />
        </Array>
      </mxGeometry>
    </mxCell>
    <mxCell id="label186" parent="edge31" vertex="1" connectable="0" value="1" style="edgeLabel;resizable=0;html=1;align=left;verticalAlign=top;strokeColor=default;">
      <mxGeometry x="2330" y="953" as="geometry" />
    </mxCell>
    <mxCell id="label190" parent="edge31" vertex="1" connectable="0" value="1" style="edgeLabel;resizable=0;html=1;align=left;verticalAlign=top;strokeColor=default;">
      <mxGeometry x="744" y="889" as="geometry" />
    </mxCell>
    <mxCell id="label191" parent="edge31" vertex="1" connectable="0" value="questionMapper" style="edgeLabel;resizable=0;html=1;align=left;verticalAlign=top;strokeColor=default;">
      <mxGeometry x="755" y="860" as="geometry" />
    </mxCell>
    <mxCell id="edge93" edge="1" value="" parent="1" source="node13" target="node8" style="html=1;rounded=1;edgeStyle=orthogonalEdgeStyle;dashed=0;startArrow=diamondThinstartSize=12;endArrow=openThin;endSize=12;strokeColor=#595959;exitX=0.000;exitY=0.500;exitDx=0;exitDy=0;entryX=1.000;entryY=0.500;entryDx=0;entryDy=0;">
      <mxGeometry width="50" height="50" relative="1" as="geometry">
        <Array as="points" />
      </mxGeometry>
    </mxCell>
    <mxCell id="label558" parent="edge93" vertex="1" connectable="0" value="1" style="edgeLabel;resizable=0;html=1;align=left;verticalAlign=top;strokeColor=default;">
      <mxGeometry x="2264" y="767" as="geometry" />
    </mxCell>
    <mxCell id="label562" parent="edge93" vertex="1" connectable="0" value="1" style="edgeLabel;resizable=0;html=1;align=left;verticalAlign=top;strokeColor=default;">
      <mxGeometry x="2239" y="767" as="geometry" />
    </mxCell>
    <mxCell id="label563" parent="edge93" vertex="1" connectable="0" value="questionRepository" style="edgeLabel;resizable=0;html=1;align=left;verticalAlign=top;strokeColor=default;">
      <mxGeometry x="2177" y="827" as="geometry" />
    </mxCell>
    <mxCell id="edge34" edge="1" value="" parent="1" source="node50" target="node36" style="html=1;rounded=1;edgeStyle=orthogonalEdgeStyle;dashed=0;startArrow=diamondThinstartSize=12;endArrow=openThin;endSize=12;strokeColor=#595959;exitX=0.750;exitY=0.000;exitDx=0;exitDy=0;entryX=0.833;entryY=1.000;entryDx=0;entryDy=0;">
      <mxGeometry width="50" height="50" relative="1" as="geometry">
        <Array as="points">
          <mxPoint x="6091" y="1266" />
          <mxPoint x="6039" y="1266" />
        </Array>
      </mxGeometry>
    </mxCell>
    <mxCell id="label204" parent="edge34" vertex="1" connectable="0" value="1" style="edgeLabel;resizable=0;html=1;align=left;verticalAlign=top;strokeColor=default;">
      <mxGeometry x="6080" y="1363" as="geometry" />
    </mxCell>
    <mxCell id="label208" parent="edge34" vertex="1" connectable="0" value="*" style="edgeLabel;resizable=0;html=1;align=left;verticalAlign=top;strokeColor=default;">
      <mxGeometry x="6030" y="1028" as="geometry" />
    </mxCell>
    <mxCell id="label209" parent="edge34" vertex="1" connectable="0" value="forms" style="edgeLabel;resizable=0;html=1;align=left;verticalAlign=top;strokeColor=default;">
      <mxGeometry x="6039" y="1028" as="geometry" />
    </mxCell>
    <mxCell id="edge21" edge="1" value="" parent="1" source="node50" target="node35" style="html=1;rounded=1;edgeStyle=orthogonalEdgeStyle;dashed=0;startArrow=diamondThinstartSize=12;endArrow=openThin;endSize=12;strokeColor=#595959;exitX=0.833;exitY=1.000;exitDx=0;exitDy=0;entryX=0.750;entryY=0.000;entryDx=0;entryDy=0;">
      <mxGeometry width="50" height="50" relative="1" as="geometry">
        <Array as="points">
          <mxPoint x="6119" y="1949" />
          <mxPoint x="6128" y="1949" />
        </Array>
      </mxGeometry>
    </mxCell>
    <mxCell id="label126" parent="edge21" vertex="1" connectable="0" value="1" style="edgeLabel;resizable=0;html=1;align=left;verticalAlign=top;strokeColor=default;">
      <mxGeometry x="6108" y="1872" as="geometry" />
    </mxCell>
    <mxCell id="label130" parent="edge21" vertex="1" connectable="0" value="*" style="edgeLabel;resizable=0;html=1;align=left;verticalAlign=top;strokeColor=default;">
      <mxGeometry x="6119" y="1997" as="geometry" />
    </mxCell>
    <mxCell id="label131" parent="edge21" vertex="1" connectable="0" value="interpretations" style="edgeLabel;resizable=0;html=1;align=left;verticalAlign=top;strokeColor=default;">
      <mxGeometry x="6128" y="1975" as="geometry" />
    </mxCell>
    <mxCell id="edge76" edge="1" value="" parent="1" source="node22" target="node50" style="html=1;rounded=1;edgeStyle=orthogonalEdgeStyle;dashed=1;startArrow=none;endArrow=openThin;endSize=12;strokeColor=#595959;exitX=0.500;exitY=0.000;exitDx=0;exitDy=0;entryX=0.167;entryY=1.000;entryDx=0;entryDy=0;">
      <mxGeometry width="50" height="50" relative="1" as="geometry">
        <Array as="points">
          <mxPoint x="5482" y="1905" />
          <mxPoint x="5679" y="1905" />
          <mxPoint x="5679" y="1875" />
          <mxPoint x="5901" y="1875" />
        </Array>
      </mxGeometry>
    </mxCell>
    <mxCell id="edge66" edge="1" value="" parent="1" source="node22" target="node12" style="html=1;rounded=1;edgeStyle=orthogonalEdgeStyle;dashed=1;startArrow=none;endArrow=openThin;endSize=12;strokeColor=#595959;exitX=0.500;exitY=0.000;exitDx=0;exitDy=0;entryX=0.750;entryY=1.000;entryDx=0;entryDy=0;">
      <mxGeometry width="50" height="50" relative="1" as="geometry">
        <Array as="points">
          <mxPoint x="5482" y="1266" />
          <mxPoint x="5759" y="1266" />
          <mxPoint x="5759" y="1154" />
          <mxPoint x="2823" y="1154" />
        </Array>
      </mxGeometry>
    </mxCell>
    <mxCell id="edge35" edge="1" value="" parent="1" source="node40" target="node50" style="html=1;rounded=1;edgeStyle=orthogonalEdgeStyle;dashed=1;startArrow=none;endArrow=openThin;endSize=12;strokeColor=#595959;exitX=0.250;exitY=0.000;exitDx=0;exitDy=0;entryX=0.167;entryY=1.000;entryDx=0;entryDy=0;">
      <mxGeometry width="50" height="50" relative="1" as="geometry">
        <Array as="points">
          <mxPoint x="5740" y="2600" />
          <mxPoint x="5699" y="2600" />
          <mxPoint x="5699" y="1895" />
          <mxPoint x="5679" y="1895" />
          <mxPoint x="5679" y="1875" />
          <mxPoint x="5901" y="1875" />
        </Array>
      </mxGeometry>
    </mxCell>
    <mxCell id="edge87" edge="1" value="" parent="1" source="node40" target="node12" style="html=1;rounded=1;edgeStyle=orthogonalEdgeStyle;dashed=1;startArrow=none;endArrow=openThin;endSize=12;strokeColor=#595959;exitX=0.250;exitY=0.000;exitDx=0;exitDy=0;entryX=0.750;entryY=1.000;entryDx=0;entryDy=0;">
      <mxGeometry width="50" height="50" relative="1" as="geometry">
        <Array as="points">
          <mxPoint x="5740" y="2600" />
          <mxPoint x="5596" y="2600" />
          <mxPoint x="5596" y="1614" />
          <mxPoint x="5462" y="1614" />
          <mxPoint x="5462" y="1266" />
          <mxPoint x="5759" y="1266" />
          <mxPoint x="5759" y="1154" />
          <mxPoint x="2823" y="1154" />
        </Array>
      </mxGeometry>
    </mxCell>
    <mxCell id="edge4" edge="1" value="" parent="1" source="node40" target="node22" style="html=1;rounded=1;edgeStyle=orthogonalEdgeStyle;dashed=1;startArrow=none;endArrow=block;endSize=12;strokeColor=#008200;exitX=0.750;exitY=0.000;exitDx=0;exitDy=0;entryX=0.750;entryY=1.000;entryDx=0;entryDy=0;">
      <mxGeometry width="50" height="50" relative="1" as="geometry">
        <Array as="points">
          <mxPoint x="5839" y="2590" />
          <mxPoint x="5531" y="2590" />
        </Array>
      </mxGeometry>
    </mxCell>
    <mxCell id="edge70" edge="1" value="" parent="1" source="node51" target="node50" style="html=1;rounded=1;edgeStyle=orthogonalEdgeStyle;dashed=1;startArrow=none;endArrow=openThin;endSize=12;strokeColor=#595959;exitX=0.750;exitY=0.000;exitDx=0;exitDy=0;entryX=0.167;entryY=1.000;entryDx=0;entryDy=0;">
      <mxGeometry width="50" height="50" relative="1" as="geometry">
        <Array as="points">
          <mxPoint x="5597" y="2610" />
          <mxPoint x="6468" y="2610" />
          <mxPoint x="6468" y="2012" />
          <mxPoint x="5679" y="2012" />
          <mxPoint x="5679" y="1875" />
          <mxPoint x="5901" y="1875" />
        </Array>
      </mxGeometry>
    </mxCell>
    <mxCell id="edge61" edge="1" value="" parent="1" source="node51" target="node12" style="html=1;rounded=1;edgeStyle=orthogonalEdgeStyle;dashed=1;startArrow=none;endArrow=openThin;endSize=12;strokeColor=#595959;exitX=0.750;exitY=0.000;exitDx=0;exitDy=0;entryX=0.750;entryY=1.000;entryDx=0;entryDy=0;">
      <mxGeometry width="50" height="50" relative="1" as="geometry">
        <Array as="points">
          <mxPoint x="5597" y="2610" />
          <mxPoint x="6468" y="2610" />
          <mxPoint x="6468" y="2432" />
          <mxPoint x="5739" y="2432" />
          <mxPoint x="5739" y="1266" />
          <mxPoint x="5759" y="1266" />
          <mxPoint x="5759" y="1154" />
          <mxPoint x="2823" y="1154" />
        </Array>
      </mxGeometry>
    </mxCell>
    <mxCell id="edge40" edge="1" value="" parent="1" source="node51" target="node22" style="html=1;rounded=1;edgeStyle=orthogonalEdgeStyle;dashed=0;startArrow=diamondThinstartSize=12;endArrow=openThin;endSize=12;strokeColor=#595959;exitX=0.250;exitY=0.000;exitDx=0;exitDy=0;entryX=0.250;entryY=1.000;entryDx=0;entryDy=0;">
      <mxGeometry width="50" height="50" relative="1" as="geometry">
        <Array as="points">
          <mxPoint x="5472" y="2212" />
          <mxPoint x="5432" y="2212" />
        </Array>
      </mxGeometry>
    </mxCell>
    <mxCell id="label240" parent="edge40" vertex="1" connectable="0" value="1" style="edgeLabel;resizable=0;html=1;align=left;verticalAlign=top;strokeColor=default;">
      <mxGeometry x="5461" y="2595" as="geometry" />
    </mxCell>
    <mxCell id="label244" parent="edge40" vertex="1" connectable="0" value="1" style="edgeLabel;resizable=0;html=1;align=left;verticalAlign=top;strokeColor=default;">
      <mxGeometry x="5421" y="2097" as="geometry" />
    </mxCell>
    <mxCell id="label245" parent="edge40" vertex="1" connectable="0" value="scaleMapper" style="edgeLabel;resizable=0;html=1;align=left;verticalAlign=top;strokeColor=default;">
      <mxGeometry x="5432" y="2007" as="geometry" />
    </mxCell>
    <mxCell id="edge67" edge="1" value="" parent="1" source="node51" target="node26" style="html=1;rounded=1;edgeStyle=orthogonalEdgeStyle;dashed=0;startArrow=diamondThinstartSize=12;endArrow=openThin;endSize=12;strokeColor=#595959;exitX=0.250;exitY=0.000;exitDx=0;exitDy=0;entryX=0.500;entryY=1.002;entryDx=0;entryDy=0;">
      <mxGeometry width="50" height="50" relative="1" as="geometry">
        <Array as="points">
          <mxPoint x="5472" y="2610" />
          <mxPoint x="5215" y="2610" />
        </Array>
      </mxGeometry>
    </mxCell>
    <mxCell id="label402" parent="edge67" vertex="1" connectable="0" value="1" style="edgeLabel;resizable=0;html=1;align=left;verticalAlign=top;strokeColor=default;">
      <mxGeometry x="5402" y="2590" as="geometry" />
    </mxCell>
    <mxCell id="label406" parent="edge67" vertex="1" connectable="0" value="1" style="edgeLabel;resizable=0;html=1;align=left;verticalAlign=top;strokeColor=default;">
      <mxGeometry x="5204" y="2241" as="geometry" />
    </mxCell>
    <mxCell id="label407" parent="edge67" vertex="1" connectable="0" value="scaleRepository" style="edgeLabel;resizable=0;html=1;align=left;verticalAlign=top;strokeColor=default;">
      <mxGeometry x="5215" y="2241" as="geometry" />
    </mxCell>
    <mxCell id="edge32" edge="1" value="" parent="1" source="node43" target="node12" style="html=1;rounded=1;edgeStyle=orthogonalEdgeStyle;dashed=1;startArrow=none;endArrow=openThin;endSize=12;strokeColor=#595959;exitX=0.750;exitY=0.000;exitDx=0;exitDy=0;entryX=0.750;entryY=1.000;entryDx=0;entryDy=0;">
      <mxGeometry width="50" height="50" relative="1" as="geometry">
        <Array as="points">
          <mxPoint x="5316" y="2448" />
          <mxPoint x="5719" y="2448" />
          <mxPoint x="5719" y="1949" />
          <mxPoint x="5759" y="1949" />
          <mxPoint x="5759" y="1154" />
          <mxPoint x="2823" y="1154" />
        </Array>
      </mxGeometry>
    </mxCell>
    <mxCell id="edge46" edge="1" value="" parent="1" source="node43" target="node22" style="html=1;rounded=1;edgeStyle=orthogonalEdgeStyle;dashed=0;startArrow=diamondThinstartSize=12;endArrow=openThin;endSize=12;strokeColor=#595959;exitX=0.250;exitY=0.000;exitDx=0;exitDy=0;entryX=0.250;entryY=1.000;entryDx=0;entryDy=0;">
      <mxGeometry width="50" height="50" relative="1" as="geometry">
        <Array as="points">
          <mxPoint x="5191" y="2438" />
          <mxPoint x="5432" y="2438" />
        </Array>
      </mxGeometry>
    </mxCell>
    <mxCell id="label276" parent="edge46" vertex="1" connectable="0" value="1" style="edgeLabel;resizable=0;html=1;align=left;verticalAlign=top;strokeColor=default;">
      <mxGeometry x="5180" y="2565" as="geometry" />
    </mxCell>
    <mxCell id="label280" parent="edge46" vertex="1" connectable="0" value="1" style="edgeLabel;resizable=0;html=1;align=left;verticalAlign=top;strokeColor=default;">
      <mxGeometry x="5381" y="2007" as="geometry" />
    </mxCell>
    <mxCell id="label281" parent="edge46" vertex="1" connectable="0" value="scaleMapper" style="edgeLabel;resizable=0;html=1;align=left;verticalAlign=top;strokeColor=default;">
      <mxGeometry x="5472" y="1992" as="geometry" />
    </mxCell>
    <mxCell id="edge65" edge="1" value="" parent="1" source="node43" target="node26" style="html=1;rounded=1;edgeStyle=orthogonalEdgeStyle;dashed=0;startArrow=diamondThinstartSize=12;endArrow=openThin;endSize=12;strokeColor=#595959;exitX=0.250;exitY=0.000;exitDx=0;exitDy=0;entryX=0.500;entryY=1.002;entryDx=0;entryDy=0;">
      <mxGeometry width="50" height="50" relative="1" as="geometry">
        <Array as="points">
          <mxPoint x="5191" y="2418" />
          <mxPoint x="5215" y="2418" />
        </Array>
      </mxGeometry>
    </mxCell>
    <mxCell id="label390" parent="edge65" vertex="1" connectable="0" value="1" style="edgeLabel;resizable=0;html=1;align=left;verticalAlign=top;strokeColor=default;">
      <mxGeometry x="5180" y="2595" as="geometry" />
    </mxCell>
    <mxCell id="label394" parent="edge65" vertex="1" connectable="0" value="1" style="edgeLabel;resizable=0;html=1;align=left;verticalAlign=top;strokeColor=default;">
      <mxGeometry x="5204" y="2272" as="geometry" />
    </mxCell>
    <mxCell id="label395" parent="edge65" vertex="1" connectable="0" value="scaleRepository" style="edgeLabel;resizable=0;html=1;align=left;verticalAlign=top;strokeColor=default;">
      <mxGeometry x="5215" y="2272" as="geometry" />
    </mxCell>
    <mxCell id="edge107" edge="1" value="" parent="1" source="node21" target="node10" style="html=1;rounded=1;edgeStyle=orthogonalEdgeStyle;dashed=0;startArrow=diamondThinstartSize=12;endArrow=openThin;endSize=12;strokeColor=#595959;exitX=0.500;exitY=0.000;exitDx=0;exitDy=0;entryX=0.500;entryY=1.000;entryDx=0;entryDy=0;">
      <mxGeometry width="50" height="50" relative="1" as="geometry">
        <Array as="points" />
      </mxGeometry>
    </mxCell>
    <mxCell id="label642" parent="edge107" vertex="1" connectable="0" value="1" style="edgeLabel;resizable=0;html=1;align=left;verticalAlign=top;strokeColor=default;">
      <mxGeometry x="4802" y="2117" as="geometry" />
    </mxCell>
    <mxCell id="label646" parent="edge107" vertex="1" connectable="0" value="1" style="edgeLabel;resizable=0;html=1;align=left;verticalAlign=top;strokeColor=default;">
      <mxGeometry x="4802" y="1721" as="geometry" />
    </mxCell>
    <mxCell id="label647" parent="edge107" vertex="1" connectable="0" value="jwtRequestFilter" style="edgeLabel;resizable=0;html=1;align=left;verticalAlign=top;strokeColor=default;">
      <mxGeometry x="4813" y="1721" as="geometry" />
    </mxCell>
    <mxCell id="edge101" edge="1" value="" parent="1" source="node24" target="node14" style="html=1;rounded=1;edgeStyle=orthogonalEdgeStyle;dashed=0;startArrow=diamondThinstartSize=12;endArrow=openThin;endSize=12;strokeColor=#595959;exitX=0.833;exitY=0.000;exitDx=0;exitDy=0;entryX=0.500;entryY=1.000;entryDx=0;entryDy=0;">
      <mxGeometry width="50" height="50" relative="1" as="geometry">
        <Array as="points" />
      </mxGeometry>
    </mxCell>
    <mxCell id="label606" parent="edge101" vertex="1" connectable="0" value="1" style="edgeLabel;resizable=0;html=1;align=left;verticalAlign=top;strokeColor=default;">
      <mxGeometry x="6288" y="598" as="geometry" />
    </mxCell>
    <mxCell id="label610" parent="edge101" vertex="1" connectable="0" value="*" style="edgeLabel;resizable=0;html=1;align=left;verticalAlign=top;strokeColor=default;">
      <mxGeometry x="6290" y="267" as="geometry" />
    </mxCell>
    <mxCell id="label611" parent="edge101" vertex="1" connectable="0" value="roles" style="edgeLabel;resizable=0;html=1;align=left;verticalAlign=top;strokeColor=default;">
      <mxGeometry x="6299" y="267" as="geometry" />
    </mxCell>
    <mxCell id="edge115" edge="1" value="" parent="1" source="node48" target="node53" style="html=1;rounded=1;edgeStyle=orthogonalEdgeStyle;dashed=1;startArrow=none;endArrow=openThin;endSize=12;strokeColor=#595959;exitX=0.000;exitY=0.250;exitDx=0;exitDy=0;entryX=1.000;entryY=0.250;entryDx=0;entryDy=0;">
      <mxGeometry width="50" height="50" relative="1" as="geometry">
        <Array as="points">
          <mxPoint x="7418" y="723" />
          <mxPoint x="7418" y="741" />
        </Array>
      </mxGeometry>
    </mxCell>
    <mxCell id="edge114" edge="1" value="" parent="1" source="node53" target="node48" style="html=1;rounded=1;edgeStyle=orthogonalEdgeStyle;dashed=0;startArrow=circlePlus;startFill=0;endArrow=none;strokeColor=#820000;exitX=1.000;exitY=0.750;exitDx=0;exitDy=0;entryX=0.000;entryY=0.750;entryDx=0;entryDy=0;">
      <mxGeometry width="50" height="50" relative="1" as="geometry">
        <Array as="points">
          <mxPoint x="7408" y="833" />
          <mxPoint x="7408" y="851" />
        </Array>
      </mxGeometry>
    </mxCell>
    <mxCell id="edge15" edge="1" value="" parent="1" source="node42" target="node24" style="html=1;rounded=1;edgeStyle=orthogonalEdgeStyle;dashed=1;startArrow=none;endArrow=openThin;endSize=12;strokeColor=#595959;exitX=0.500;exitY=0.000;exitDx=0;exitDy=0;entryX=0.500;entryY=0.000;entryDx=0;entryDy=0;">
      <mxGeometry width="50" height="50" relative="1" as="geometry">
        <Array as="points">
          <mxPoint x="4163" y="485" />
          <mxPoint x="6229" y="485" />
        </Array>
      </mxGeometry>
    </mxCell>
    <mxCell id="edge60" edge="1" value="" parent="1" source="node5" target="node24" style="html=1;rounded=1;edgeStyle=orthogonalEdgeStyle;dashed=1;startArrow=none;endArrow=openThin;endSize=12;strokeColor=#595959;exitX=0.500;exitY=0.000;exitDx=0;exitDy=0;entryX=0.167;entryY=0.000;entryDx=0;entryDy=0;">
      <mxGeometry width="50" height="50" relative="1" as="geometry">
        <Array as="points">
          <mxPoint x="4517" y="505" />
          <mxPoint x="6159" y="505" />
        </Array>
      </mxGeometry>
    </mxCell>
    <mxCell id="edge28" edge="1" value="" parent="1" source="node5" target="node42" style="html=1;rounded=1;edgeStyle=orthogonalEdgeStyle;dashed=0;startArrow=diamondThinstartSize=12;endArrow=openThin;endSize=12;strokeColor=#595959;exitX=0.000;exitY=0.500;exitDx=0;exitDy=0;entryX=1.000;entryY=0.500;entryDx=0;entryDy=0;">
      <mxGeometry width="50" height="50" relative="1" as="geometry">
        <Array as="points" />
      </mxGeometry>
    </mxCell>
    <mxCell id="label168" parent="edge28" vertex="1" connectable="0" value="1" style="edgeLabel;resizable=0;html=1;align=left;verticalAlign=top;strokeColor=default;">
      <mxGeometry x="4346" y="767" as="geometry" />
    </mxCell>
    <mxCell id="label172" parent="edge28" vertex="1" connectable="0" value="1" style="edgeLabel;resizable=0;html=1;align=left;verticalAlign=top;strokeColor=default;">
      <mxGeometry x="4321" y="767" as="geometry" />
    </mxCell>
    <mxCell id="label173" parent="edge28" vertex="1" connectable="0" value="userRepository" style="edgeLabel;resizable=0;html=1;align=left;verticalAlign=top;strokeColor=default;">
      <mxGeometry x="4270" y="827" as="geometry" />
    </mxCell>
    <mxCell id="edge96" edge="1" value="" parent="1" source="node47" target="node17" style="html=1;rounded=1;edgeStyle=orthogonalEdgeStyle;dashed=0;startArrow=diamondThinstartSize=12;endArrow=openThin;endSize=12;strokeColor=#595959;exitX=0.500;exitY=1.000;exitDx=0;exitDy=0;entryX=0.700;entryY=0.000;entryDx=0;entryDy=0;">
      <mxGeometry width="50" height="50" relative="1" as="geometry">
        <Array as="points">
          <mxPoint x="5291" y="475" />
          <mxPoint x="5305" y="475" />
        </Array>
      </mxGeometry>
    </mxCell>
    <mxCell id="label576" parent="edge96" vertex="1" connectable="0" value="1" style="edgeLabel;resizable=0;html=1;align=left;verticalAlign=top;strokeColor=default;">
      <mxGeometry x="5280" y="375" as="geometry" />
    </mxCell>
    <mxCell id="label580" parent="edge96" vertex="1" connectable="0" value="1" style="edgeLabel;resizable=0;html=1;align=left;verticalAlign=top;strokeColor=default;">
      <mxGeometry x="5294" y="485" as="geometry" />
    </mxCell>
    <mxCell id="label581" parent="edge96" vertex="1" connectable="0" value="question_id" style="edgeLabel;resizable=0;html=1;align=left;verticalAlign=top;strokeColor=default;">
      <mxGeometry x="5305" y="485" as="geometry" />
    </mxCell>
    <mxCell id="edge100" edge="1" value="" parent="1" source="node2" target="node47" style="html=1;rounded=1;edgeStyle=orthogonalEdgeStyle;dashed=1;startArrow=none;endArrow=openThin;endSize=12;strokeColor=#595959;exitX=0.375;exitY=0.000;exitDx=0;exitDy=0;entryX=0.167;entryY=1.000;entryDx=0;entryDy=0;">
      <mxGeometry width="50" height="50" relative="1" as="geometry">
        <Array as="points">
          <mxPoint x="1732" y="615" />
          <mxPoint x="3198" y="615" />
          <mxPoint x="3198" y="405" />
          <mxPoint x="3156" y="405" />
          <mxPoint x="3156" y="385" />
          <mxPoint x="5212" y="385" />
        </Array>
      </mxGeometry>
    </mxCell>
    <mxCell id="edge82" edge="1" value="" parent="1" source="node2" target="node52" style="html=1;rounded=1;edgeStyle=orthogonalEdgeStyle;dashed=1;startArrow=none;endArrow=openThin;endSize=12;strokeColor=#595959;exitX=0.375;exitY=0.000;exitDx=0;exitDy=0;entryX=0.750;entryY=1.000;entryDx=0;entryDy=0;">
      <mxGeometry width="50" height="50" relative="1" as="geometry">
        <Array as="points">
          <mxPoint x="1732" y="615" />
          <mxPoint x="3198" y="615" />
          <mxPoint x="3198" y="415" />
          <mxPoint x="1402" y="415" />
        </Array>
      </mxGeometry>
    </mxCell>
    <mxCell id="edge104" edge="1" value="" parent="1" source="node29" target="node47" style="html=1;rounded=1;edgeStyle=orthogonalEdgeStyle;dashed=1;startArrow=none;endArrow=openThin;endSize=12;strokeColor=#595959;exitX=0.500;exitY=0.000;exitDx=0;exitDy=0;entryX=0.167;entryY=1.000;entryDx=0;entryDy=0;">
      <mxGeometry width="50" height="50" relative="1" as="geometry">
        <Array as="points">
          <mxPoint x="1402" y="455" />
          <mxPoint x="3156" y="455" />
          <mxPoint x="3156" y="385" />
          <mxPoint x="5212" y="385" />
        </Array>
      </mxGeometry>
    </mxCell>
    <mxCell id="edge30" edge="1" value="" parent="1" source="node29" target="node52" style="html=1;rounded=1;edgeStyle=orthogonalEdgeStyle;dashed=1;startArrow=none;endArrow=openThin;endSize=12;strokeColor=#595959;exitX=0.500;exitY=0.000;exitDx=0;exitDy=0;entryX=0.750;entryY=1.000;entryDx=0;entryDy=0;">
      <mxGeometry width="50" height="50" relative="1" as="geometry">
        <Array as="points" />
      </mxGeometry>
    </mxCell>
    <mxCell id="edge3" edge="1" value="" parent="1" source="node29" target="node2" style="html=1;rounded=1;edgeStyle=orthogonalEdgeStyle;dashed=1;startArrow=none;endArrow=block;endSize=12;strokeColor=#008200;exitX=1.000;exitY=0.500;exitDx=0;exitDy=0;entryX=0.000;entryY=0.500;entryDx=0;entryDy=0;">
      <mxGeometry width="50" height="50" relative="1" as="geometry">
        <Array as="points" />
      </mxGeometry>
    </mxCell>
    <mxCell id="edge98" edge="1" value="" parent="1" source="node19" target="node47" style="html=1;rounded=1;edgeStyle=orthogonalEdgeStyle;dashed=1;startArrow=none;endArrow=openThin;endSize=12;strokeColor=#595959;exitX=0.500;exitY=0.000;exitDx=0;exitDy=0;entryX=0.167;entryY=1.000;entryDx=0;entryDy=0;">
      <mxGeometry width="50" height="50" relative="1" as="geometry">
        <Array as="points">
          <mxPoint x="3445" y="395" />
          <mxPoint x="3156" y="395" />
          <mxPoint x="3156" y="385" />
          <mxPoint x="5212" y="385" />
        </Array>
      </mxGeometry>
    </mxCell>
    <mxCell id="edge55" edge="1" value="" parent="1" source="node9" target="node17" style="html=1;rounded=1;edgeStyle=orthogonalEdgeStyle;dashed=1;startArrow=none;endArrow=openThin;endSize=12;strokeColor=#595959;exitX=0.750;exitY=1.000;exitDx=0;exitDy=0;entryX=0.125;entryY=1.000;entryDx=0;entryDy=0;">
      <mxGeometry width="50" height="50" relative="1" as="geometry">
        <Array as="points">
          <mxPoint x="3177" y="1074" />
          <mxPoint x="5113" y="1074" />
        </Array>
      </mxGeometry>
    </mxCell>
    <mxCell id="edge112" edge="1" value="" parent="1" source="node9" target="node47" style="html=1;rounded=1;edgeStyle=orthogonalEdgeStyle;dashed=1;startArrow=none;endArrow=openThin;endSize=12;strokeColor=#595959;exitX=0.750;exitY=0.000;exitDx=0;exitDy=0;entryX=0.167;entryY=1.000;entryDx=0;entryDy=0;">
      <mxGeometry width="50" height="50" relative="1" as="geometry">
        <Array as="points">
          <mxPoint x="3177" y="425" />
          <mxPoint x="3156" y="425" />
          <mxPoint x="3156" y="385" />
          <mxPoint x="5212" y="385" />
        </Array>
      </mxGeometry>
    </mxCell>
    <mxCell id="edge9" edge="1" value="" parent="1" source="node9" target="node52" style="html=1;rounded=1;edgeStyle=orthogonalEdgeStyle;dashed=1;startArrow=none;endArrow=openThin;endSize=12;strokeColor=#595959;exitX=0.750;exitY=0.000;exitDx=0;exitDy=0;entryX=0.750;entryY=1.000;entryDx=0;entryDy=0;">
      <mxGeometry width="50" height="50" relative="1" as="geometry">
        <Array as="points">
          <mxPoint x="3177" y="435" />
          <mxPoint x="1402" y="435" />
        </Array>
      </mxGeometry>
    </mxCell>
    <mxCell id="edge17" edge="1" value="" parent="1" source="node9" target="node2" style="html=1;rounded=1;edgeStyle=orthogonalEdgeStyle;dashed=0;startArrow=diamondThinstartSize=12;endArrow=openThin;endSize=12;strokeColor=#595959;exitX=0.250;exitY=0.000;exitDx=0;exitDy=0;entryX=0.875;entryY=0.000;entryDx=0;entryDy=0;">
      <mxGeometry width="50" height="50" relative="1" as="geometry">
        <Array as="points">
          <mxPoint x="2997" y="625" />
          <mxPoint x="1892" y="625" />
        </Array>
      </mxGeometry>
    </mxCell>
    <mxCell id="label102" parent="edge17" vertex="1" connectable="0" value="1" style="edgeLabel;resizable=0;html=1;align=left;verticalAlign=top;strokeColor=default;">
      <mxGeometry x="2986" y="682" as="geometry" />
    </mxCell>
    <mxCell id="label106" parent="edge17" vertex="1" connectable="0" value="1" style="edgeLabel;resizable=0;html=1;align=left;verticalAlign=top;strokeColor=default;">
      <mxGeometry x="1881" y="695" as="geometry" />
    </mxCell>
    <mxCell id="label107" parent="edge17" vertex="1" connectable="0" value="variantMapper" style="edgeLabel;resizable=0;html=1;align=left;verticalAlign=top;strokeColor=default;">
      <mxGeometry x="1892" y="686" as="geometry" />
    </mxCell>
    <mxCell id="edge44" edge="1" value="" parent="1" source="node9" target="node19" style="html=1;rounded=1;edgeStyle=orthogonalEdgeStyle;dashed=0;startArrow=diamondThinstartSize=12;endArrow=openThin;endSize=12;strokeColor=#595959;exitX=1.000;exitY=0.500;exitDx=0;exitDy=0;entryX=0.000;entryY=0.500;entryDx=0;entryDy=0;">
      <mxGeometry width="50" height="50" relative="1" as="geometry">
        <Array as="points" />
      </mxGeometry>
    </mxCell>
    <mxCell id="label264" parent="edge44" vertex="1" connectable="0" value="1" style="edgeLabel;resizable=0;html=1;align=left;verticalAlign=top;strokeColor=default;">
      <mxGeometry x="3273" y="767" as="geometry" />
    </mxCell>
    <mxCell id="label268" parent="edge44" vertex="1" connectable="0" value="1" style="edgeLabel;resizable=0;html=1;align=left;verticalAlign=top;strokeColor=default;">
      <mxGeometry x="3298" y="767" as="geometry" />
    </mxCell>
    <mxCell id="label269" parent="edge44" vertex="1" connectable="0" value="variantRepository" style="edgeLabel;resizable=0;html=1;align=left;verticalAlign=top;strokeColor=default;">
      <mxGeometry x="3217" y="787" as="geometry" />
    </mxCell>
    <mxCell id="edge69" edge="1" value="" parent="1" source="node41" target="node47" style="html=1;rounded=1;edgeStyle=orthogonalEdgeStyle;dashed=1;startArrow=none;endArrow=openThin;endSize=12;strokeColor=#595959;exitX=0.750;exitY=0.000;exitDx=0;exitDy=0;entryX=0.167;entryY=1.000;entryDx=0;entryDy=0;">
      <mxGeometry width="50" height="50" relative="1" as="geometry">
        <Array as="points">
          <mxPoint x="3893" y="395" />
          <mxPoint x="3156" y="395" />
          <mxPoint x="3156" y="385" />
          <mxPoint x="5212" y="385" />
        </Array>
      </mxGeometry>
    </mxCell>
    <mxCell id="edge54" edge="1" value="" parent="1" source="node41" target="node2" style="html=1;rounded=1;edgeStyle=orthogonalEdgeStyle;dashed=0;startArrow=diamondThinstartSize=12;endArrow=openThin;endSize=12;strokeColor=#595959;exitX=0.250;exitY=0.000;exitDx=0;exitDy=0;entryX=0.625;entryY=0.000;entryDx=0;entryDy=0;">
      <mxGeometry width="50" height="50" relative="1" as="geometry">
        <Array as="points">
          <mxPoint x="3713" y="605" />
          <mxPoint x="1812" y="605" />
        </Array>
      </mxGeometry>
    </mxCell>
    <mxCell id="label324" parent="edge54" vertex="1" connectable="0" value="1" style="edgeLabel;resizable=0;html=1;align=left;verticalAlign=top;strokeColor=default;">
      <mxGeometry x="3702" y="672" as="geometry" />
    </mxCell>
    <mxCell id="label328" parent="edge54" vertex="1" connectable="0" value="1" style="edgeLabel;resizable=0;html=1;align=left;verticalAlign=top;strokeColor=default;">
      <mxGeometry x="1801" y="681" as="geometry" />
    </mxCell>
    <mxCell id="label329" parent="edge54" vertex="1" connectable="0" value="variantMapper" style="edgeLabel;resizable=0;html=1;align=left;verticalAlign=top;strokeColor=default;">
      <mxGeometry x="1812" y="652" as="geometry" />
    </mxCell>
    <mxCell id="edge27" edge="1" value="" parent="1" source="node41" target="node19" style="html=1;rounded=1;edgeStyle=orthogonalEdgeStyle;dashed=0;startArrow=diamondThinstartSize=12;endArrow=openThin;endSize=12;strokeColor=#595959;exitX=0.000;exitY=0.500;exitDx=0;exitDy=0;entryX=1.000;entryY=0.500;entryDx=0;entryDy=0;">
      <mxGeometry width="50" height="50" relative="1" as="geometry">
        <Array as="points" />
      </mxGeometry>
    </mxCell>
    <mxCell id="label162" parent="edge27" vertex="1" connectable="0" value="1" style="edgeLabel;resizable=0;html=1;align=left;verticalAlign=top;strokeColor=default;">
      <mxGeometry x="3605" y="767" as="geometry" />
    </mxCell>
    <mxCell id="label166" parent="edge27" vertex="1" connectable="0" value="1" style="edgeLabel;resizable=0;html=1;align=left;verticalAlign=top;strokeColor=default;">
      <mxGeometry x="3580" y="767" as="geometry" />
    </mxCell>
    <mxCell id="label167" parent="edge27" vertex="1" connectable="0" value="variantRepository" style="edgeLabel;resizable=0;html=1;align=left;verticalAlign=top;strokeColor=default;">
      <mxGeometry x="3574" y="787" as="geometry" />
    </mxCell>
  </root>
</mxGraphModel>